<?xml version="1.0" encoding="utf-8"?>
<!-- Generator: Adobe Illustrator 26.4.1, SVG Export Plug-In . SVG Version: 6.00 Build 0)  -->
<svg version="1.1" id="Layer_1" xmlns="http://www.w3.org/2000/svg" xmlns:xlink="http://www.w3.org/1999/xlink" x="0px" y="0px"
	 viewBox="0 0 370 110" style="enable-background:new 0 0 370 110;" xml:space="preserve">
<style type="text/css">
	.st0{fill:#FFFFFF;fill-opacity:0.8;}
	.st1{fill:#231F20;}
	.st2{fill:#CF593B;}
	.st3{fill:#FDC972;}
	.st4{fill:#C7583B;}
	.st5{fill:#F3F3F3;}
	.st6{fill:#F2C26F;}
	.st7{fill:#F3F2F1;}
	.st8{fill:#CF593C;}
	.st9{fill:#FDC971;}
	.st10{fill:#F3F2F2;}
	.st11{fill:#F4F3F3;}
	.st12{fill:#C7583C;}
	.st13{fill:#F2C371;}
	.st14{fill:#F2C16E;}
	.st15{fill:#FDCA75;}
	.st16{fill:#F4F4F3;}
	.st17{fill:#F8F8F8;}
	.st18{fill:#FBC771;}
	.st19{fill:#F2C06E;}
	.st20{fill:#F3F1F1;}
	.st21{fill:#FEFDFC;}
	.st22{fill:#FEFEFE;}
	.st23{fill:#F3F1ED;}
	.st24{fill:#FEFDFD;}
	.st25{fill:#C8583B;}
	.st26{fill:#F3F3F2;}
	.st27{fill:#FEFDFB;}
	.st28{fill:#FEFCF8;}
	.st29{fill:#FDC973;}
	.st30{fill:#C8593B;}
	.st31{fill:#F4C16E;}
	.st32{fill:#FEFEFD;}
	.st33{fill:#F2C271;}
	.st34{fill:#D05C3C;}
	.st35{font-family:'Lato-Medium';}
	.st36{font-size:18.569px;}
</style>
<g>
	<path class="st0" d="M20,0h330c11,0,20,9,20,20v70c0,11-9,20-20,20H20c-11,0-20-9-20-20V20C0,9,9,0,20,0z"/>
</g>
<path class="st1" d="M109.9,40c-1.7,0-3.3-0.4-4.6-1.1c-1.3-0.8-2.3-1.8-3-3.2c-0.7-1.4-1-3-1-4.8s0.3-3.4,1-4.8
	c0.7-1.4,1.7-2.4,3-3.2c1.3-0.8,2.8-1.1,4.6-1.1c1.2,0,2.3,0.2,3.4,0.6c1.1,0.4,1.9,0.9,2.7,1.6l-1.1,2.4c-0.8-0.6-1.6-1.1-2.4-1.4
	c-0.8-0.3-1.6-0.5-2.5-0.5c-1.7,0-3,0.6-4,1.7c-0.9,1.1-1.4,2.7-1.4,4.8c0,2.1,0.5,3.7,1.4,4.8c0.9,1.1,2.3,1.7,4,1.7
	c0.9,0,1.7-0.1,2.5-0.4c0.8-0.3,1.6-0.8,2.4-1.4l1.1,2.4c-0.7,0.7-1.6,1.2-2.7,1.6C112.2,39.8,111.1,40,109.9,40z M124.5,40
	c-1.3,0-2.4-0.3-3.3-0.8c-0.9-0.5-1.7-1.3-2.2-2.2c-0.5-1-0.8-2.1-0.8-3.4c0-1.3,0.3-2.4,0.8-3.4c0.5-1,1.3-1.7,2.2-2.2
	c1-0.5,2.1-0.8,3.3-0.8c1.3,0,2.4,0.3,3.3,0.8c1,0.5,1.7,1.3,2.2,2.2c0.5,1,0.8,2.1,0.8,3.4c0,1.3-0.3,2.4-0.8,3.4
	c-0.5,1-1.2,1.7-2.2,2.2C126.9,39.7,125.8,40,124.5,40z M124.5,37.6c1,0,1.8-0.3,2.3-1c0.5-0.7,0.8-1.7,0.8-3c0-1.3-0.3-2.3-0.8-2.9
	c-0.5-0.7-1.3-1-2.3-1c-1,0-1.8,0.3-2.3,1c-0.5,0.7-0.8,1.7-0.8,2.9c0,1.3,0.3,2.3,0.8,3C122.7,37.2,123.5,37.6,124.5,37.6z
	 M141,27.2c1.5,0,2.6,0.4,3.3,1.3c0.7,0.8,1.1,2.1,1.1,3.8v7.6h-3.1v-7.4c0-1-0.2-1.7-0.6-2.1c-0.4-0.4-0.9-0.7-1.7-0.7
	c-0.9,0-1.6,0.3-2.2,0.9c-0.5,0.6-0.8,1.3-0.8,2.3v7h-3.1V27.5h3.1v1.8c0.4-0.7,1-1.2,1.7-1.6C139.4,27.4,140.1,27.2,141,27.2z
	 M161.1,27.5v11.2c0,1.9-0.5,3.4-1.6,4.4c-1.1,1-2.6,1.5-4.7,1.5c-1.1,0-2.1-0.1-3.1-0.4c-1-0.3-1.9-0.7-2.6-1.2l0.9-2.2
	c1.5,0.9,3.1,1.4,4.7,1.4c2.2,0,3.3-1.1,3.3-3.2v-1.6c-0.4,0.7-0.9,1.2-1.6,1.6c-0.7,0.4-1.5,0.6-2.4,0.6c-1.1,0-2-0.3-2.9-0.8
	c-0.8-0.5-1.5-1.2-1.9-2.2c-0.5-0.9-0.7-2-0.7-3.2s0.2-2.3,0.7-3.2c0.5-0.9,1.1-1.7,2-2.2c0.8-0.5,1.8-0.8,2.9-0.8
	c0.9,0,1.7,0.2,2.4,0.6c0.7,0.4,1.2,0.9,1.6,1.6v-1.9H161.1z M154.8,37c1,0,1.8-0.3,2.3-1c0.6-0.7,0.9-1.6,0.9-2.7
	c0-1.2-0.3-2.1-0.9-2.7c-0.6-0.7-1.3-1-2.3-1c-1,0-1.8,0.3-2.3,1c-0.6,0.7-0.9,1.6-0.9,2.7c0,1.1,0.3,2,0.9,2.7
	C153,36.7,153.8,37,154.8,37z M173,29.8l-1.8,0.2c-2.1,0.2-3.1,1.3-3.1,3.2v6.6h-3.1V27.5h3v2.2c0.6-1.5,2-2.3,4-2.4l1-0.1L173,29.8
	z M180.3,27.2c1.7,0,3,0.4,3.9,1.3c0.8,0.8,1.3,2.1,1.3,3.9v7.5h-3v-1.9c-0.3,0.7-0.7,1.2-1.4,1.5c-0.6,0.4-1.3,0.6-2.1,0.6
	c-0.8,0-1.6-0.2-2.2-0.5c-0.7-0.3-1.2-0.8-1.6-1.4c-0.4-0.6-0.6-1.2-0.6-2c0-0.9,0.2-1.6,0.7-2.1c0.5-0.5,1.2-0.9,2.3-1.1
	c1-0.2,2.5-0.4,4.3-0.4h0.6v-0.6c0-0.8-0.2-1.4-0.6-1.8c-0.4-0.4-0.9-0.6-1.8-0.6c-0.7,0-1.3,0.1-2.1,0.4c-0.7,0.2-1.4,0.5-2.1,0.9
	l-0.9-2.2c0.7-0.4,1.5-0.8,2.5-1.1C178.5,27.3,179.4,27.2,180.3,27.2z M179.5,37.7c0.8,0,1.5-0.3,2-0.8c0.5-0.6,0.8-1.3,0.8-2.2
	v-0.5h-0.5c-1.1,0-2,0.1-2.6,0.2c-0.6,0.1-1.1,0.3-1.3,0.5c-0.3,0.3-0.4,0.6-0.4,1c0,0.5,0.2,1,0.6,1.3
	C178.5,37.6,179,37.7,179.5,37.7z M195.4,37.6c0.4,0,0.8,0,1.2-0.1l-0.2,2.3c-0.5,0.1-1,0.1-1.4,0.1c-1.7,0-3-0.4-3.8-1.2
	c-0.8-0.8-1.2-2-1.2-3.6v-5.4h-2.4v-2.4h2.4v-3.7h3.1v3.7h3.2v2.4h-3.2v5.3C193.1,36.8,193.8,37.6,195.4,37.6z M210.2,27.5v12.3
	h-3.1v-1.9c-0.4,0.7-0.9,1.2-1.6,1.6c-0.7,0.4-1.4,0.5-2.2,0.5c-3,0-4.5-1.7-4.5-5.1v-7.4h3.1v7.5c0,0.9,0.2,1.5,0.5,1.9
	c0.4,0.4,0.9,0.6,1.7,0.6c0.9,0,1.6-0.3,2.1-0.9c0.5-0.6,0.8-1.4,0.8-2.3v-6.8H210.2z M214,39.8V22h3.1v17.8H214z M226.1,27.2
	c1.7,0,3,0.4,3.9,1.3c0.8,0.8,1.3,2.1,1.3,3.9v7.5h-3v-1.9c-0.3,0.7-0.7,1.2-1.4,1.5c-0.6,0.4-1.3,0.6-2.1,0.6
	c-0.8,0-1.6-0.2-2.2-0.5c-0.7-0.3-1.2-0.8-1.6-1.4c-0.4-0.6-0.6-1.2-0.6-2c0-0.9,0.2-1.6,0.7-2.1c0.5-0.5,1.2-0.9,2.3-1.1
	c1-0.2,2.5-0.4,4.3-0.4h0.6v-0.6c0-0.8-0.2-1.4-0.6-1.8c-0.4-0.4-0.9-0.6-1.8-0.6c-0.7,0-1.3,0.1-2.1,0.4c-0.7,0.2-1.4,0.5-2.1,0.9
	l-0.9-2.2c0.7-0.4,1.5-0.8,2.5-1.1C224.3,27.3,225.3,27.2,226.1,27.2z M225.4,37.7c0.8,0,1.5-0.3,2-0.8c0.5-0.6,0.8-1.3,0.8-2.2
	v-0.5h-0.5c-1.1,0-2,0.1-2.6,0.2c-0.6,0.1-1.1,0.3-1.3,0.5c-0.3,0.3-0.4,0.6-0.4,1c0,0.5,0.2,1,0.6,1.3
	C224.4,37.6,224.8,37.7,225.4,37.7z M241.2,37.6c0.4,0,0.8,0,1.2-0.1l-0.2,2.3c-0.5,0.1-1,0.1-1.4,0.1c-1.7,0-3-0.4-3.8-1.2
	c-0.8-0.8-1.2-2-1.2-3.6v-5.4h-2.4v-2.4h2.4v-3.7h3.1v3.7h3.2v2.4H239v5.3C239,36.8,239.7,37.6,241.2,37.6z M244.8,39.8V27.5h3.1
	v12.3H244.8z M244.6,21.8h3.5v3.1h-3.5V21.8z M257.3,40c-1.3,0-2.4-0.3-3.3-0.8c-0.9-0.5-1.7-1.3-2.2-2.2c-0.5-1-0.8-2.1-0.8-3.4
	c0-1.3,0.3-2.4,0.8-3.4c0.5-1,1.3-1.7,2.2-2.2c1-0.5,2.1-0.8,3.3-0.8c1.3,0,2.4,0.3,3.3,0.8c1,0.5,1.7,1.3,2.2,2.2
	c0.5,1,0.8,2.1,0.8,3.4c0,1.3-0.3,2.4-0.8,3.4c-0.5,1-1.2,1.7-2.2,2.2C259.6,39.7,258.5,40,257.3,40z M257.2,37.6c1,0,1.8-0.3,2.3-1
	c0.5-0.7,0.8-1.7,0.8-3c0-1.3-0.3-2.3-0.8-2.9c-0.5-0.7-1.3-1-2.3-1c-1,0-1.8,0.3-2.3,1c-0.5,0.7-0.8,1.7-0.8,2.9
	c0,1.3,0.3,2.3,0.8,3C255.5,37.2,256.2,37.6,257.2,37.6z M273.8,27.2c1.5,0,2.6,0.4,3.3,1.3c0.7,0.8,1.1,2.1,1.1,3.8v7.6H275v-7.4
	c0-1-0.2-1.7-0.6-2.1c-0.4-0.4-0.9-0.7-1.7-0.7c-0.9,0-1.6,0.3-2.2,0.9c-0.5,0.6-0.8,1.3-0.8,2.3v7h-3.1V27.5h3.1v1.8
	c0.4-0.7,1-1.2,1.7-1.6C272.1,27.4,272.9,27.2,273.8,27.2z M286.4,40c-1.1,0-2.1-0.1-3-0.4c-0.9-0.3-1.7-0.7-2.3-1.2l0.9-2.2
	c1.3,1,2.8,1.4,4.5,1.4c0.7,0,1.3-0.1,1.6-0.4c0.4-0.2,0.6-0.6,0.6-1c0-0.4-0.1-0.7-0.4-0.9c-0.3-0.2-0.7-0.4-1.4-0.6l-2-0.5
	c-1.1-0.3-2-0.7-2.5-1.2c-0.6-0.6-0.8-1.3-0.8-2.2c0-0.8,0.2-1.4,0.6-2c0.4-0.6,1-1,1.8-1.4c0.8-0.3,1.7-0.5,2.7-0.5
	c0.9,0,1.7,0.1,2.5,0.4c0.8,0.3,1.5,0.6,2.2,1.1l-0.9,2.1c-1.3-0.9-2.6-1.4-3.8-1.4c-0.7,0-1.2,0.1-1.6,0.4
	c-0.4,0.3-0.6,0.6-0.6,1.1c0,0.3,0.1,0.6,0.4,0.8c0.3,0.2,0.6,0.4,1.2,0.5l2.1,0.5c1.2,0.3,2.1,0.7,2.7,1.3c0.6,0.6,0.9,1.3,0.9,2.3
	c0,1.1-0.5,2-1.4,2.7S288,40,286.4,40z"/>
<g>
	<path class="st2" d="M78.5,44.5c0.3,0,0.2,0.2,0.2,0.4c0,0.8,0,1.5,0,2.3c-0.1,0.2-0.3,0.4-0.4,0.6c-8.5,8.5-17.1,17.1-25.6,25.6
		c-0.3,0.3-0.6,0.6-1.1,0.5c-0.1,0-0.1,0-0.1-0.1c0.1-0.3,0.3-0.5,0.6-0.7c8.6-8.6,17.1-17.1,25.7-25.7c0.2-0.2,0.4-0.4,0.6-0.7
		c-0.2,0.1-0.3,0.3-0.5,0.4c-8.7,8.7-17.3,17.3-26,26c-0.2,0.2-0.4,0.4-0.6,0.6c-0.1,0-0.1,0-0.2,0c-0.3-0.3-0.6-0.5-0.9-0.7
		c0-0.1,0-0.1,0-0.2c0.1-0.2,0.3-0.4,0.5-0.6c9.1-9.1,18.1-18.1,27.2-27.2c0.2-0.2,0.3-0.4,0.6-0.5C78.4,44.4,78.4,44.4,78.5,44.5z"
		/>
	<path class="st2" d="M51.5,73.8c0.4,0,0.8-0.2,1.1-0.6c8.5-8.5,17.1-17.1,25.6-25.6c0.2-0.2,0.3-0.3,0.5-0.5c0,0.9,0,1.7,0,2.6
		c-0.1,0.3-0.3,0.5-0.5,0.6C70.1,58.5,62,66.6,53.9,74.7c-0.2,0.2-0.3,0.5-0.7,0.4c-0.2,0-0.3-0.2-0.4-0.2c0,0,0-0.1,0-0.2
		c0.1-0.3,0.4-0.4,0.6-0.6c8.1-8.1,16.3-16.3,24.4-24.4c0.2-0.2,0.4-0.4,0.6-0.7c-0.2,0.1-0.3,0.2-0.4,0.3
		C69.6,57.5,61.4,65.8,53.2,74c-0.2,0.2-0.4,0.4-0.6,0.6c-0.1,0.1-0.2,0-0.3-0.1C52,74.3,51.8,74.1,51.5,73.8
		C51.5,73.9,51.4,73.9,51.5,73.8C51.5,73.8,51.5,73.8,51.5,73.8z"/>
	<path class="st2" d="M76.2,44.5c0.5,0,1.1,0,1.6,0c0,0.4-0.3,0.5-0.5,0.7C68.5,54,59.7,62.8,51,71.6c-0.4,0.4-0.7,0.7-1.1,1.1
		c-0.1,0.1-0.2,0-0.3-0.1c-0.3-0.2-0.5-0.4-0.8-0.6c0,0-0.1-0.1-0.1-0.2c0.1-0.3,0.3-0.4,0.4-0.6c8.8-8.8,17.6-17.6,26.4-26.4
		c0.1-0.1,0.3-0.3,0.4-0.4C76.1,44.4,76.1,44.4,76.2,44.5z"/>
	<path class="st2" d="M73.8,44.5c0.5,0,1.1,0,1.6,0c0,0.3-0.2,0.4-0.3,0.6c-8.8,8.8-17.5,17.5-26.3,26.3c-0.1,0.1-0.2,0.2-0.4,0.3
		c-0.1,0-0.1,0-0.2,0c-0.3-0.3-0.6-0.5-1-0.7c0,0,0-0.1,0-0.1c1-1,2-2,3-2.9c4.5-4.5,9.1-9.1,13.6-13.6c0.2-0.2,0.4-0.3,0.5-0.6
		c0.4-0.7,1.1-1.1,1.7-1.6c0.4-0.4,0.8-0.8,1.2-1.2c2-1.9,3.9-3.9,5.9-5.9c0.2-0.2,0.3-0.4,0.6-0.5C73.7,44.4,73.8,44.4,73.8,44.5z"
		/>
	<path class="st3" d="M37.2,24.7c0.3-0.2,0.6-0.1,0.9-0.1c0.7,0,1.4,0,2.1,0c0.5,0,0.8,0.1,0.7,0.6c0,0.1,0,0.3,0,0.4
		c0,0.1,0,0.1,0,0.2c-0.1,0.2-0.3,0.4-0.5,0.6c-3.7,3.7-7.3,7.3-11,11c-0.4,0.4-0.8,0.8-1.1,1.2c-0.1,0-0.1,0-0.2,0
		c0-0.4-0.1-0.8-0.1-1.2c-0.1-0.2-0.1-0.3-0.1-0.5c0.1-0.3,0.3-0.4,0.5-0.6c3.6-3.6,7.2-7.2,10.8-10.8c0.1-0.1,0.3-0.3,0.4-0.5
		c-0.3,0-0.4,0.3-0.6,0.4c-3.5,3.5-6.9,6.9-10.4,10.4c-0.2,0.2-0.3,0.6-0.7,0.4c0-0.1,0-0.3,0-0.4c0-0.4,0-0.8,0-1.1
		c0-0.1,0-0.2,0.1-0.3c2.5-2.6,5-5.1,7.6-7.6c0,0,0.1-0.1,0.1-0.1c0.2,0,0.3,0,0.5-0.2c0.1,0,0.1-0.1,0.2-0.1
		c0.7-0.2,0.7-0.2,0.7-1.1C37,25,37.1,24.9,37.2,24.7z"/>
	<path class="st2" d="M37.4,66.1c-0.4,0.3-0.7,0.7-1.1,1c-5.2,5.1-10.4,10.2-15.7,15.3c-0.1,0.1-0.2,0.3-0.6,0.4
		c0.5-0.7,0.9-1.4,1.3-2c0.2-0.6,0.6-1.1,1.1-1.6c0.2-0.1,0.4-0.3,0.6-0.5c6.9-6.9,13.8-13.8,20.7-20.7c0.2-0.2,0.4-0.4,0.6-0.5
		c0.1,0,0.1,0,0.2,0c0.4,0.2,0.7,0.4,1,0.7c0,0.1,0,0.1,0,0.2c-0.1,0.2-0.3,0.3-0.4,0.5c-1.8,1.8-3.6,3.6-5.4,5.4
		c-0.2,0.2-0.3,0.4-0.6,0.5c0,0-0.1,0-0.1,0.1c-0.4,0.2-0.7,0.6-1,0.9C37.8,65.8,37.6,66,37.4,66.1z"/>
	<path class="st2" d="M23.5,77.8c0.9-1.3,1.8-2.6,2.6-3.9c0.1-0.2,0.2-0.3,0.3-0.5c0.2-0.6,0.5-1.1,1-1.5c0.2-0.1,0.3-0.2,0.5-0.4
		c4.8-4.8,9.6-9.6,14.5-14.5c0.2-0.2,0.4-0.4,0.6-0.6c0.5,0,0.7,0.4,1.1,0.7c0.1,0.1,0.1,0.2,0.1,0.3C37.5,64,30.9,70.7,24.3,77.3
		C24.1,77.5,23.9,77.8,23.5,77.8z"/>
	<path class="st2" d="M53.2,75.1c0.2-0.1,0.4-0.3,0.6-0.5c8.1-8.1,16.3-16.3,24.4-24.4c0.2-0.2,0.3-0.3,0.5-0.5c0,0.2,0,0.5,0,0.7
		c-0.8,0.5-1.3,1.2-1.9,1.8c-1.2,1.2-2.4,2.4-3.5,3.5c-0.2,0.2-0.4,0.3-0.3,0.6c-0.3,0.7-0.9,1.1-1.3,1.6c-1,1-2,2-2.9,3.1
		c-0.1,0.1-0.2,0.2-0.4,0.3c-0.3,0.1-0.4,0.3-0.6,0.5c-4.4,4.4-8.9,8.9-13.3,13.3c-0.2,0.2-0.4,0.4-0.6,0.5c-0.1,0-0.1,0-0.2,0
		C53.5,75.4,53.4,75.2,53.2,75.1z"/>
	<path class="st2" d="M28.5,70.4c0.9-1.3,1.7-2.6,2.6-3.9c0.1-0.2,0.2-0.4,0.3-0.5c0.2-0.6,0.6-1,1-1.5c0.2-0.1,0.4-0.3,0.5-0.4
		c2.7-2.7,5.4-5.4,8.1-8.1c0.2-0.2,0.3-0.4,0.6-0.5c0.1,0,0.1,0,0.2,0c0.3,0.2,0.7,0.4,1,0.7c0,0.1,0,0.1,0,0.2
		c-0.1,0.2-0.3,0.3-0.4,0.5C38,61.2,33.6,65.6,29.2,70C29,70.2,28.9,70.5,28.5,70.4z"/>
	<path class="st3" d="M40.9,26.3c0.4,0.1,0.8,0.2,1.3,0.3c0,0,0.1,0.1,0,0.1c-0.4,0.6-1,1.1-1.5,1.6c-1.2,1.2-2.3,2.4-3.5,3.4
		c0,0-0.1,0-0.2,0.1c-0.8,0.1-1.5,0.5-2,1.3c-0.3,0.5-0.7,1-0.8,1.5c-0.1,0.2-0.1,0.4-0.3,0.5c-0.2,0.1-0.3,0.2-0.5,0.4
		c-1.4,1.4-2.9,2.9-4.3,4.3c-0.2,0.2-0.3,0.4-0.6,0.5c-0.1,0-0.1,0-0.1-0.1c-0.1-0.4-0.2-0.8-0.4-1.1c0,0-0.1-0.1,0-0.2
		c0.1-0.2,0.3-0.4,0.5-0.6c3.8-3.8,7.7-7.7,11.5-11.5c0.2-0.2,0.4-0.5,0.7-0.5C40.8,26.3,40.9,26.3,40.9,26.3z"/>
	<path class="st2" d="M72.9,56.4c-0.5-0.2-0.1-0.4,0.1-0.5c1.5-1.5,2.9-2.9,4.4-4.4c0.3-0.3,0.5-0.7,0.9-0.9
		c0.1-0.1,0.3-0.1,0.4-0.1c0,0.4,0,0.9,0,1.3c-0.1,0.3-0.3,0.4-0.5,0.6c-1.2,1.2-2.5,2.5-3.7,3.7c-0.2,0.2-0.4,0.3-0.4,0.6
		c0.3,0.1,0.4-0.2,0.6-0.3c1.1-1.1,2.2-2.2,3.3-3.2c0.2-0.2,0.4-0.5,0.8-0.4c0,0.4,0,0.9,0,1.3c-0.1,0.2-0.3,0.4-0.4,0.6
		c-0.9,0.9-1.8,1.8-2.8,2.8c-0.1,0.1-0.4,0.2-0.3,0.5c0.3,0,0.4-0.2,0.5-0.3c0.7-0.7,1.5-1.5,2.2-2.2c0.2-0.2,0.4-0.5,0.8-0.3
		c0,0.9,0,1.7,0,2.6c-0.1,0.2-0.2,0.3-0.3,0.4c-0.6,0.6-1.2,1.3-1.9,1.8c-0.1,0-0.1,0-0.2,0c-0.2-0.3-0.5-0.6-0.8-0.8
		c0,0,0-0.1,0-0.2c0.7-0.8,1.5-1.5,2.3-2.3c0.2-0.2,0.3-0.3,0.4-0.5c-1,0.8-1.8,1.9-2.8,2.7c-0.1,0-0.1,0-0.2,0
		c-0.2-0.3-0.5-0.6-0.8-0.8c0,0,0-0.1,0-0.2c1.1-1.2,2.3-2.3,3.4-3.5c0.2-0.2,0.4-0.3,0.5-0.6c-0.5,0.4-0.8,0.8-1.2,1.2
		c-1,0.9-1.8,1.9-2.9,2.8c-0.1,0-0.1,0-0.2,0c-0.2-0.3-0.5-0.6-0.8-0.8c0,0,0-0.1,0-0.2c0.9-1,1.9-1.9,2.8-2.9
		c0.7-0.7,1.5-1.5,2.2-2.3c-1.8,1.6-3.4,3.3-5.1,5C73,56.4,73,56.4,72.9,56.4z"/>
	<path class="st4" d="M49.9,72.6c0-0.3,0.3-0.5,0.5-0.6c9-9,18-18,27-27c0.2-0.2,0.3-0.3,0.5-0.5c0,0,0.1,0,0.1,0
		c0.2-0.1,0.3-0.1,0.5,0c-0.1,0.2-0.3,0.3-0.4,0.5c-9.1,9.1-18.2,18.2-27.3,27.3c-0.2,0.2-0.3,0.4-0.6,0.5
		C49.9,72.8,49.8,72.8,49.9,72.6z"/>
	<path class="st4" d="M48.5,71.6c0.2-0.2,0.3-0.4,0.5-0.5C57.6,62.4,66.3,53.7,75,45c0.1-0.1,0.3-0.3,0.4-0.5c0,0,0.1,0,0.1,0
		c0.2-0.1,0.3-0.1,0.5,0c-0.2,0.2-0.3,0.3-0.5,0.5C66.8,53.8,58,62.6,49.2,71.3c-0.2,0.2-0.4,0.3-0.5,0.5
		C48.6,71.9,48.5,71.8,48.5,71.6z"/>
	<path class="st3" d="M45.4,42.6c0.4,0.2,0.8,0.4,1.1,0.6c0,0,0,0.1,0,0.1c-1.5,1.4-2.9,2.9-4.4,4.4c-0.2,0.2-0.3,0.4-0.6,0.5
		c-0.1,0-0.2,0-0.2,0c-0.5-0.1-0.4,0.3-0.5,0.6c0,0.1,0,0.1-0.1,0.2c-1,1.1-2.2,2.2-3.3,3.3c-0.1,0.1-0.3,0.4-0.5,0.1
		C37,51.9,37,51.5,37,51c0-0.1,0-0.1,0-0.2c0.1-0.2,0.2-0.3,0.4-0.5c2.5-2.5,5-5,7.5-7.5c0.1-0.1,0.2-0.2,0.4-0.3
		C45.3,42.6,45.4,42.6,45.4,42.6z"/>
	<path class="st3" d="M32.5,45.6c-0.3-0.2-0.6-0.5-0.9-0.7c0,0,0-0.1,0-0.2c0.5-0.7,1.2-1.3,1.8-1.9c1-1,2-2.1,3.1-3
		c0.1,0,0.1,0,0.2,0c0.5,0.2,0.4-0.2,0.5-0.5c0-0.1,0-0.1,0.1-0.2c1-1.1,2.2-2.2,3.3-3.3c0.1-0.1,0.3-0.4,0.5-0.1
		c0.1,0.5,0.1,0.9,0,1.4c0,0.1,0,0.1,0,0.2c-0.1,0.2-0.2,0.3-0.4,0.5c-2.5,2.5-5,5-7.5,7.5c-0.1,0.1-0.2,0.2-0.4,0.3
		C32.6,45.6,32.6,45.6,32.5,45.6z"/>
	<path class="st5" d="M74.4,57.8c0,0,0,0.1,0,0.1c-0.2,0.1-0.3,0.3-0.5,0.4c-8,8-16.1,16.1-24.1,24.1c-0.2,0.2-0.3,0.3-0.5,0.5
		c-0.2,0.1-0.3,0.1-0.3-0.1c0.2-0.2,0.3-0.4,0.5-0.5c8.1-8.1,16.2-16.2,24.2-24.2c0.1-0.1,0.3-0.3,0.4-0.5c0,0,0.1,0,0.1,0
		C74.3,57.6,74.4,57.6,74.4,57.8z"/>
	<path class="st2" d="M46.9,70.6c-0.3-0.2-0.5-0.4-0.8-0.6c0,0-0.1-0.1-0.1-0.2c0-0.2,0.2-0.3,0.3-0.4c1.9-1.9,3.9-3.9,5.8-5.8
		c0.1-0.1,0.1-0.1,0.2-0.2c0.1,0,0.1,0,0.2,0c0.4,0.2,0.7,0.1,1.1-0.2c1.7-1.6,3.5-3.2,5.2-4.8c0.2-0.1,0.3-0.3,0.6-0.2
		c0.1,0.3-0.1,0.4-0.3,0.5c-3.9,3.9-7.7,7.7-11.6,11.6c-0.1,0.1-0.2,0.3-0.4,0.3C47.1,70.6,47,70.6,46.9,70.6z"/>
	<path class="st5" d="M75.5,58.9c0,0,0,0.1,0,0.1c-0.2,0.1-0.3,0.3-0.5,0.4c-7.7,7.7-15.3,15.3-23,23c-0.2,0.2-0.3,0.3-0.5,0.5
		c-0.2,0.1-0.3,0.1-0.3-0.1c0.2-0.2,0.3-0.4,0.5-0.5c7.7-7.7,15.4-15.4,23.1-23.1c0.1-0.1,0.3-0.3,0.4-0.5c0,0,0.1,0,0.1,0
		C75.5,58.7,75.5,58.8,75.5,58.9z"/>
	<path class="st3" d="M44.4,27.4c0.4,0.2,0.8,0.4,1.2,0.6c0,0,0,0.1,0,0.2c-1.2,1.1-2.3,2.3-3.5,3.5c-0.2,0.2-0.3,0.3-0.5,0.5
		c-0.1,0-0.1,0-0.2,0c-0.7-0.3-0.3,0.3-0.4,0.5c0,0.1,0,0.1-0.1,0.2c-1,1.1-2.2,2.2-3.3,3.3c-0.1,0.1-0.3,0.4-0.5,0.1
		c-0.1-0.5-0.1-0.9,0-1.4c0-0.1,0-0.1,0-0.2c0.1-0.2,0.2-0.3,0.3-0.4c2.2-2.2,4.4-4.4,6.5-6.5c0.1-0.1,0.2-0.2,0.3-0.3
		C44.3,27.3,44.3,27.3,44.4,27.4z"/>
	<path class="st3" d="M34,46.3c-0.3-0.1-0.7-0.3-1-0.4c-0.1,0-0.1-0.1-0.1-0.1c0-0.3,0.2-0.4,0.4-0.6c2.3-2.3,4.6-4.6,6.8-6.8
		c0.2-0.2,0.3-0.6,0.7-0.3c0.1,0.5,0.1,0.9,0,1.4c0,0.1,0,0.1,0,0.2c-0.1,0.3-0.3,0.4-0.5,0.6c-2,2-4.1,4-6.1,6.1
		C34.2,46.4,34.1,46.3,34,46.3z"/>
	<path class="st3" d="M43.8,41.9c0.4,0.2,0.9,0.3,1.3,0.5c0,0.1,0,0.1,0,0.2c-2.4,2.4-4.8,4.8-7.2,7.1c-0.2,0.1-0.3,0.3-0.5,0.4
		c-0.1,0.1-0.3,0.2-0.4-0.1c-0.1-0.5-0.1-0.9,0-1.4c0-0.1,0-0.1,0-0.2c0.1-0.2,0.2-0.3,0.3-0.4c2-2,4-4,6-6c0.1-0.1,0.2-0.2,0.3-0.3
		C43.7,41.9,43.8,41.9,43.8,41.9z"/>
	<path class="st4" d="M23.5,77.8c0.2-0.1,0.4-0.3,0.5-0.4c6.5-6.5,13-13,19.5-19.5c0.2-0.2,0.3-0.4,0.6-0.5c0.1,0,0.3-0.1,0.2,0.1
		c-0.1,0.2-0.3,0.3-0.4,0.5C37,65,30,72,23,78.9c-0.1,0.1-0.2,0.4-0.5,0.3c-0.1-0.3,0.2-0.5,0.4-0.7C23.1,78.3,23.3,78,23.5,77.8z"
		/>
	<path class="st3" d="M50.7,50.6c0,0.1,0,0.2,0,0.3c-1.5,1.4-2.9,2.9-4.3,4.3c-0.6,0.5-1.1,1.1-1.6,1.6c-0.2,0.2-0.3,0.4-0.6,0.3
		c-0.3-0.2-0.7-0.5-1-0.7c-0.1,0-0.1-0.1-0.1-0.1c0.3-0.3,0.7-0.6,1-0.9c0.2-0.1,0.4-0.3,0.5-0.4c1.8-1.8,3.6-3.6,5.4-5.4
		c0.2-0.2,0.3-0.5,0.6-0.4C50.5,49.7,50.6,50.2,50.7,50.6z"/>
	<path class="st2" d="M43,67.7c-0.3-0.3-0.6-0.5-1-0.7c0,0,0-0.1,0-0.1c2.1-2.1,4.3-4.2,6.4-6.4c0.1-0.1,0.2,0,0.3,0
		c0.3,0.2,0.6,0.4,0.8,0.7c0,0.1,0,0.1,0,0.2c0,0.2-0.2,0.3-0.3,0.4c-1.9,1.9-3.9,3.9-5.8,5.8c-0.1,0.1-0.1,0.1-0.2,0.2
		C43.1,67.7,43,67.7,43,67.7z"/>
	<path class="st2" d="M45.7,69.6c-0.3-0.3-0.6-0.5-1-0.7c0,0,0-0.1,0-0.1c2-1.9,3.9-3.8,5.8-5.8c0.2-0.2,0.4-0.4,0.7-0.5
		c0.1,0,0.1,0,0.2,0c0.4,0.1,0.7,0.4,0.9,0.6c0,0.1,0,0.1,0,0.2c-0.1,0.1-0.2,0.3-0.3,0.4c-1.9,1.9-3.9,3.9-5.8,5.8
		c-0.1,0.1-0.2,0.2-0.3,0.3C45.8,69.7,45.7,69.7,45.7,69.6z"/>
	<path class="st2" d="M44.3,68.6c-0.3-0.2-0.6-0.4-0.8-0.6c0,0,0-0.1,0-0.2c0-0.2,0.2-0.3,0.3-0.4c1.9-1.9,3.9-3.9,5.8-5.8
		c0.1-0.1,0.1-0.1,0.2-0.1c0.1,0,0.1,0,0.2,0c0.4,0.2,0.7,0.5,1.1,0.8c0,0.1,0,0.1,0,0.2c-2,1.9-3.9,3.9-5.9,5.8
		c-0.2,0.2-0.4,0.4-0.6,0.5C44.4,68.6,44.3,68.6,44.3,68.6z"/>
	<path class="st2" d="M41.6,66.6c-0.3-0.2-0.5-0.4-0.8-0.6c-0.1,0-0.2,0-0.2-0.1c0-0.2,0.1-0.3,0.3-0.4c2-2,4-4,5.9-5.9
		c0.1-0.1,0.1-0.1,0.2-0.1c0.1,0,0.1,0,0.2,0c0.2,0,0.3,0.1,0.4,0.2c0.2,0.2,0.5,0.3,0.6,0.5c0,0.1,0,0.1,0,0.2
		c-0.5,0.6-1,1.1-1.5,1.6c-1.4,1.4-2.8,2.8-4.2,4.2c-0.2,0.2-0.4,0.4-0.6,0.5C41.7,66.7,41.6,66.6,41.6,66.6z"/>
	<path class="st3" d="M42.8,26.8c0.4,0.1,0.8,0.3,1.1,0.4c0,0,0.1,0.1,0,0.1c-0.1,0.1-0.2,0.2-0.3,0.4c-2,2-3.9,3.9-5.9,5.9
		c-0.2,0.2-0.3,0.6-0.7,0.2c-0.1-0.5-0.1-0.9,0-1.4c0-0.1,0-0.1,0-0.2c0.1-0.2,0.3-0.4,0.5-0.6c1.5-1.5,2.9-2.9,4.4-4.4
		c0.2-0.2,0.4-0.4,0.5-0.6C42.6,26.6,42.7,26.7,42.8,26.8z"/>
	<path class="st2" d="M33.6,63c0.1-0.2,0.3-0.5,0.4-0.7c0-0.3,0.1-0.4,0.3-0.6c0.7-1,1.4-2,2.1-3c0.4-0.4,0.6-1,1.1-1.4
		c0.6-0.3,0.9-0.9,1.4-1.3c0.5-0.5,0.9-1,1.5-1.4c0.2-0.1,0.4,0.1,0.5,0.2c0.2,0.2,0.5,0.3,0.7,0.6c0,0.1,0,0.1,0,0.2
		c-2.4,2.4-4.8,4.8-7.2,7.1C34.1,62.8,34,63.1,33.6,63z"/>
	<path class="st3" d="M50.7,53c0,0.1-0.1,0.2-0.1,0.2c-0.1,0.2-0.3,0.4-0.5,0.6c-1.4,1.4-2.7,2.7-4.1,4.1c-0.2,0.2-0.3,0.4-0.6,0.4
		c-0.3-0.2-0.7-0.4-0.9-0.7c-0.1-0.3,0.1-0.4,0.3-0.5c1.8-1.8,3.6-3.6,5.4-5.4c0.1-0.1,0.3-0.3,0.5-0.3C50.7,51.9,50.7,52.4,50.7,53
		z"/>
	<path class="st2" d="M71.5,44.5c0.5,0,1.1,0,1.6,0c0,0.3-0.2,0.4-0.3,0.5c-1.7,1.8-3.5,3.5-5.2,5.2c-0.1,0.1-0.3,0.3-0.5,0.3
		c-0.1,0-0.1,0-0.2,0c-0.3-0.2-0.6-0.4-0.8-0.7c0-0.1,0-0.1,0-0.2c0-0.2,0.2-0.3,0.3-0.4c1.5-1.5,3.1-3.1,4.6-4.6
		c0.1-0.1,0.1-0.1,0.2-0.2C71.4,44.4,71.5,44.4,71.5,44.5z"/>
	<path class="st5" d="M43.8,41.9c0,0-0.1,0-0.1,0c-0.2,0.1-0.3,0-0.3-0.2c0.1-0.1,0.2-0.2,0.3-0.3c5.4-5.4,10.8-10.8,16.1-16.1
		c0.1-0.1,0.2-0.2,0.4-0.3c0.2-0.1,0.3-0.1,0.3,0.1c-0.2,0.2-0.3,0.4-0.5,0.5c-5.2,5.2-10.5,10.5-15.7,15.7
		C44.1,41.6,44,41.8,43.8,41.9z"/>
	<path class="st3" d="M42,41.4c0.4,0.1,0.8,0.3,1.3,0.4c0.1,0.3-0.2,0.4-0.3,0.6c-1.7,1.7-3.4,3.4-5.1,5.1c-0.2,0.2-0.3,0.4-0.6,0.3
		C37,47.5,37,47,36.5,47c0,0-0.1-0.1-0.1-0.1c0-0.2,0.1-0.3,0.3-0.4c1.6-1.6,3.2-3.3,4.9-4.9c0.1-0.1,0.1-0.1,0.2-0.2
		C41.8,41.4,41.9,41.4,42,41.4z"/>
	<path class="st5" d="M40.4,66.1c-0.1,0.1-0.2,0.3-0.3,0.4c-5.3,5.3-10.6,10.7-16,16c-0.1,0.1-0.3,0.3-0.4,0.4
		c-0.2,0.1-0.3,0.1-0.3-0.1c0.2-0.2,0.3-0.4,0.5-0.5C29,77,34.2,71.8,39.4,66.7c0.2-0.2,0.3-0.3,0.5-0.5c0-0.1,0.1-0.1,0.1-0.1
		C40.2,66,40.3,66,40.4,66.1z"/>
	<path class="st5" d="M21,82.8c0.2-0.2,0.3-0.4,0.5-0.5c5.2-5.2,10.4-10.4,15.6-15.6c0.2-0.2,0.3-0.3,0.5-0.5c0-0.1,0.1-0.1,0.1-0.1
		c0.2,0,0.3,0,0.4,0.1c-0.1,0.1-0.2,0.3-0.3,0.4c-5.3,5.3-10.6,10.7-16,16c-0.1,0.1-0.3,0.3-0.4,0.4C21.2,83,21,83,21,82.8z"/>
	<path class="st3" d="M49.9,47.5C49.9,47.5,49.9,47.5,49.9,47.5c0.2,0.4,0.3,0.8,0.5,1.2c0,0,0,0.1,0,0.1c-0.1,0.2-0.2,0.4-0.4,0.6
		c-1.6,1.6-3.3,3.3-4.9,4.9c-0.2,0.2-0.3,0.5-0.6,0.3c0-0.4,0.2-0.8,0.2-1.2c0.1-0.2,0-0.5,0.1-0.8c0-0.1,0.1-0.2,0.2-0.3
		c1.5-1.5,3-3,4.5-4.5C49.5,47.6,49.6,47.4,49.9,47.5z"/>
	<path class="st3" d="M32.3,28c0.8-0.4,1.6-0.8,2.6-1c0.1,0.3-0.1,0.4-0.3,0.5c-2,2-3.9,3.9-5.9,5.9c-0.1,0.1-0.3,0.3-0.5,0.3
		c0.2-0.9,0.5-1.6,0.9-2.4c0.1-0.4,0.3-0.7,0.5-1c0.6-0.8,1.2-1.4,2-2C31.8,28.1,32,28,32.3,28z"/>
	<path class="st4" d="M42.9,56.4c0,0,0.1,0.1,0.1,0.1c0,0.2-0.2,0.4-0.4,0.5c-4.9,4.9-9.8,9.8-14.7,14.7c-0.1,0.1-0.2,0.4-0.4,0.3
		c-0.1-0.3,0.2-0.5,0.4-0.7c0.2-0.3,0.4-0.6,0.6-0.8c0.2-0.1,0.4-0.3,0.5-0.4c4.4-4.4,8.8-8.8,13.2-13.2c0.2-0.2,0.3-0.3,0.5-0.5
		C42.8,56.3,42.9,56.3,42.9,56.4z"/>
	<path class="st3" d="M29.3,41.8c-0.2-0.3-0.3-0.6-0.5-0.9c0-0.1-0.1-0.2-0.1-0.2c0-0.2,0.2-0.4,0.4-0.5c1.4-1.4,2.8-2.9,4.3-4.3
		c0.2-0.2,0.3-0.5,0.6-0.3c0.1,0.4,0.1,0.8,0.2,1.2c0,0.1,0,0.2,0,0.3c-1.5,1.5-2.9,2.9-4.4,4.4c-0.1,0.1-0.2,0.2-0.4,0.3
		C29.4,41.8,29.3,41.8,29.3,41.8z"/>
	<path class="st3" d="M49.1,46C49.1,46,49.1,46,49.1,46c0.3,0.3,0.5,0.6,0.6,1c0,0,0,0.1,0,0.1c0,0.2-0.1,0.3-0.2,0.4
		c-1.6,1.6-3.2,3.2-4.8,4.8c-0.1,0-0.1,0-0.1-0.1c-0.1-0.4-0.1-0.9-0.3-1.3c0-0.1-0.1-0.2,0-0.3c1.4-1.4,2.8-2.8,4.2-4.2
		C48.6,46.2,48.8,45.9,49.1,46z"/>
	<path class="st3" d="M28.9,58.3c-0.2-0.3-0.4-0.6-0.6-0.9c0,0-0.1-0.1,0-0.1c0.5-0.6,1.1-1.1,1.6-1.7c1.1-1.1,2.2-2.2,3.3-3.3
		c0.1,0,0.1,0,0.2,0c0.2,0.4,0.3,0.8,0.5,1.2c0,0.1,0,0.1,0,0.2c-0.4,0.5-0.9,1-1.4,1.4c-0.9,1-1.9,1.9-2.8,2.8
		c-0.2,0.2-0.3,0.4-0.6,0.4C29,58.4,29,58.4,28.9,58.3z"/>
	<path class="st3" d="M46.9,43.5c0,0,0.1,0,0.1,0c0.3,0.2,0.5,0.5,0.8,0.7c0,0,0,0.1,0,0.1c0,0.2-0.1,0.3-0.2,0.4
		c-1.4,1.4-2.8,2.8-4.1,4.1c-0.1,0.1-0.1,0.1-0.2,0.2c-0.1,0-0.1,0-0.2,0c-0.4-0.2-0.7-0.4-1.1-0.6c0-0.1,0-0.1,0-0.2
		c0.3-0.4,0.7-0.7,1-1.1c1.1-1.1,2.2-2.2,3.3-3.3C46.4,43.7,46.5,43.5,46.9,43.5z"/>
	<path class="st4" d="M53.8,75.6c0.1-0.2,0.3-0.3,0.4-0.5c4.5-4.5,9-9,13.5-13.5c0.1-0.1,0.2-0.4,0.5-0.3c0.1,0.2-0.1,0.3-0.3,0.5
		c-1.1,1.2-2.2,2.3-3.4,3.5c-2.4,2.5-4.8,5-7.2,7.5c-1,1-1.9,2-2.8,3c-0.1,0.1-0.2,0.3-0.4,0.3C54,75.8,53.8,75.9,53.8,75.6z"/>
	<path class="st3" d="M30,59.7c-0.2-0.3-0.5-0.6-0.7-0.9c0,0,0-0.1,0-0.2c1-1.2,2.2-2.2,3.3-3.3c0.4-0.5,0.9-0.9,1.4-1.3
		c0.1,0,0.1,0,0.2,0c0.3,0.3,0.5,0.7,0.7,1.1c0,0.1,0,0.1,0,0.2c-1.4,1.3-2.7,2.7-4.1,4c-0.2,0.2-0.3,0.4-0.6,0.5
		C30.1,59.8,30,59.7,30,59.7z"/>
	<path class="st3" d="M31.2,44.5c-0.2-0.3-0.5-0.6-0.7-0.9c0,0-0.1-0.1,0-0.1c0.6-0.8,1.4-1.5,2.1-2.2c0.8-0.8,1.5-1.6,2.4-2.3
		c0.1,0,0.1,0,0.2,0c0.3,0.2,0.6,0.5,0.9,0.7c0,0.1,0,0.1,0,0.2c0,0.2-0.2,0.3-0.3,0.4c-1.4,1.4-2.8,2.8-4.2,4.2
		c-0.1,0.1-0.1,0.1-0.2,0.2C31.3,44.5,31.3,44.5,31.2,44.5z"/>
	<path class="st3" d="M30.2,43.1c-0.2-0.3-0.4-0.5-0.6-0.8c-0.1-0.1-0.2-0.1-0.1-0.3c1.4-1.3,2.7-2.7,4.1-4.1
		c0.2-0.2,0.3-0.4,0.7-0.4c0.4,0.2,0.5,0.6,0.7,0.9c0,0.1,0,0.1,0,0.2c0,0.2-0.2,0.3-0.3,0.5c-1.3,1.3-2.5,2.5-3.8,3.8
		c-0.1,0.1-0.3,0.3-0.5,0.3C30.3,43.1,30.2,43.1,30.2,43.1z"/>
	<path class="st3" d="M48,44.7C48.1,44.7,48.1,44.7,48,44.7c0.3,0.3,0.6,0.6,0.8,0.8c0,0,0,0.1,0,0.1c0,0.2-0.2,0.3-0.3,0.4
		c-1.3,1.3-2.6,2.6-3.9,3.9c-0.1,0.1-0.3,0.3-0.5,0.3c-0.1,0-0.1,0-0.2,0c-0.3-0.2-0.5-0.6-0.7-0.9c0-0.1,0-0.1,0-0.2
		c1-1.2,2.2-2.3,3.3-3.4c0.3-0.3,0.6-0.6,0.9-0.9C47.7,44.8,47.8,44.6,48,44.7z"/>
	<path class="st2" d="M69.2,44.5c0.5,0,1.1,0,1.6,0c0.1,0.2-0.1,0.4-0.3,0.5c-1.4,1.4-2.8,2.8-4.2,4.2c-0.1,0.1-0.2,0.2-0.4,0.3
		c-0.1,0-0.1,0-0.2,0c-0.3-0.2-0.6-0.4-0.8-0.7c0-0.1,0-0.1,0-0.2c0-0.1,0.1-0.2,0.1-0.3c1.3-1.3,2.5-2.6,3.9-3.8
		C69.1,44.4,69.1,44.4,69.2,44.5z"/>
	<path class="st3" d="M28.1,56.9c-0.2-0.4-0.3-0.8-0.5-1.2c0,0,0-0.1,0-0.2c1.2-1.3,2.4-2.5,3.6-3.7c0.1-0.1,0.2-0.1,0.3-0.1
		c0.5,0,1.1-0.2,1.6-0.1c0.1,0.1,0.1,0.1,0.1,0.2c-0.8,0.9-1.7,1.7-2.5,2.6c-0.8,0.8-1.6,1.7-2.5,2.4C28.2,57,28.1,57,28.1,56.9z"/>
	<path class="st3" d="M31.2,60.8c-0.3-0.2-0.6-0.5-0.9-0.7c-0.1,0-0.1-0.1-0.1-0.1c0.6-0.7,1.2-1.3,1.9-2c0.9-0.9,1.7-1.8,2.6-2.6
		c0.1,0,0.1,0,0.2,0c0.2,0.3,0.4,0.6,0.6,0.9c0.1,0.1,0.1,0.2,0.1,0.3c-1.3,1.2-2.5,2.5-3.8,3.7c-0.2,0.2-0.3,0.3-0.5,0.5
		C31.3,60.8,31.3,60.8,31.2,60.8z"/>
	<path class="st3" d="M48.2,30.6c0.2,0.3,0.3,0.6,0.5,0.9c0.1,0.1,0.2,0.1,0.1,0.3c-1.1,1-2.1,2.1-3.2,3.2c-0.2,0.2-0.1,0.2,0,0.3
		c0,0.1,0,0.1-0.1,0.1c-0.3,0.1-0.6,0-0.9,0.2c-0.4,0-0.7,0.1-1-0.1c-0.1-0.1-0.2-0.3-0.1-0.4c1.4-1.5,2.9-2.9,4.3-4.3
		c0.1-0.1,0.2-0.2,0.3-0.2C48.1,30.6,48.2,30.6,48.2,30.6z"/>
	<path class="st3" d="M47.2,29.3c0.2,0.3,0.5,0.6,0.7,0.9c0,0,0,0.1,0,0.2c-1.1,1.3-2.4,2.4-3.6,3.6c-0.3,0.3-0.5,0.6-0.9,0.8
		c-0.1,0-0.1,0-0.2-0.1c-0.2-0.4-0.3-0.7-0.4-1.1c0-0.1,0-0.1,0-0.2c0-0.2,0.2-0.3,0.3-0.4c1.2-1.2,2.4-2.4,3.6-3.6
		c0.1-0.1,0.1-0.1,0.2-0.2C47.1,29.2,47.1,29.2,47.2,29.3z"/>
	<path class="st3" d="M32.7,61.6c-0.3-0.2-0.7-0.3-1-0.5c-0.1,0-0.1-0.1-0.1-0.1c0-0.2,0.1-0.3,0.3-0.4c1.2-1.2,2.5-2.5,3.7-3.7
		c0.1-0.1,0.1-0.1,0.2-0.2c0.1,0,0.1,0,0.2,0c0.4,0.2,0.8,0.2,1.1,0.5c0.1,0.2,0,0.3-0.1,0.4c-1.4,1.4-2.7,2.8-4.1,4.1
		C32.8,61.6,32.8,61.6,32.7,61.6z"/>
	<path class="st5" d="M32.7,61.6c0,0,0.1,0,0.1,0c0.1,0,0.2,0,0.3,0.1c0,0,0,0.1,0,0.1c-0.1,0.1-0.2,0.2-0.3,0.4c-4,4-8,8-12,12
		c-0.1,0.1-0.2,0.2-0.4,0.3c-0.3,0-0.2-0.2-0.1-0.3c0.2-0.2,0.3-0.4,0.5-0.5c3.8-3.9,7.7-7.7,11.5-11.6
		C32.5,61.9,32.6,61.8,32.7,61.6z"/>
	<path class="st5" d="M32.5,64.6c-0.3,0.5-0.7,0.9-1,1.4c-0.3-0.1-0.3,0.2-0.5,0.3c-3.4,3.3-6.7,6.7-10.1,10.1
		c-0.2,0.2-0.3,0.3-0.5,0.5c-0.3,0-0.2-0.2-0.1-0.3c0.1-0.1,0.2-0.3,0.3-0.4c3.9-3.9,7.9-7.9,11.8-11.8c0.1-0.1,0.2-0.3,0.4-0.4
		C33,64.3,32.7,64.4,32.5,64.6z"/>
	<path class="st3" d="M45.9,28.2c0.3,0.2,0.6,0.5,0.9,0.7c0,0,0.1,0.1,0,0.1c-0.8,0.9-1.7,1.7-2.5,2.6c-0.5,0.5-1,1.1-1.5,1.5
		c-0.1,0-0.1,0-0.2,0c-0.3-0.2-0.6-0.5-0.9-0.8c0-0.1,0-0.1,0-0.2c1.3-1.4,2.6-2.7,4-4C45.8,28.1,45.9,28.2,45.9,28.2z"/>
	<path class="st3" d="M50.5,53.8c-0.1,0.7-0.3,1.4-0.4,2.1c0,0.2,0,0.3-0.2,0.4c-0.9,0.8-1.7,1.7-2.5,2.5c-0.2,0.2-0.4,0.4-0.7,0.4
		c-0.4-0.1-0.7-0.3-0.9-0.6c-0.1-0.3,0.1-0.4,0.3-0.6c1.3-1.3,2.6-2.6,3.9-3.9C50.2,53.9,50.3,53.8,50.5,53.8z"/>
	<path class="st5" d="M49.9,56.2c0.1-0.1,0.1-0.2,0.2-0.4c0.1-0.1,0.2-0.2,0.4-0.3c3.5-3.5,6.9-6.9,10.4-10.4
		c0.1-0.1,0.2-0.2,0.3-0.4c0.3,0,0.4,0.1,0.4,0.4c-0.1,0.2-0.3,0.4-0.4,0.5c-3.6,3.6-7.1,7.1-10.7,10.7c-0.2,0.2-0.3,0.5-0.7,0.4
		C49.6,56.6,49.8,56.4,49.9,56.2z"/>
	<path class="st5" d="M31.7,61c0,0,0,0.1,0,0.1c-0.3,0-0.5,0.3-0.6,0.5c-3.4,3.4-6.8,6.8-10.2,10.2c-0.2,0.2-0.3,0.3-0.5,0.5
		c-0.3,0-0.2-0.2-0.1-0.3c0.2-0.2,0.3-0.4,0.5-0.5c3.3-3.3,6.7-6.7,10-10c0.2-0.2,0.3-0.3,0.5-0.5c0,0,0.1,0,0.1,0
		C31.5,60.8,31.6,60.8,31.7,61z"/>
	<path class="st2" d="M66.7,44.5c0,0,0.1,0,0.1,0c0.5,0,1.1,0,1.6,0c0.1,0.2-0.1,0.3-0.2,0.4c-1.1,1.1-2.1,2.1-3.2,3.2
		c-0.1,0.1-0.2,0.1-0.3,0.2c-0.1,0-0.1,0-0.2,0c-0.3-0.2-0.6-0.4-0.8-0.7c0-0.1,0-0.1,0-0.2c0.3-0.6,0.9-1.1,1.4-1.6
		C65.7,45.3,66.1,44.8,66.7,44.5z"/>
	<path class="st4" d="M32.5,64.6c0.1-0.2,0.3-0.5,0.4-0.7c0.2-0.3,0.5-0.6,0.7-1c0.3,0,0.4-0.3,0.5-0.4c2.3-2.3,4.5-4.5,6.8-6.8
		c0.2-0.2,0.3-0.4,0.6-0.4c0.1,0,0.2,0,0.2,0.2c-3,3-5.9,5.9-8.9,8.9C32.8,64.5,32.7,64.8,32.5,64.6z"/>
	<path class="st5" d="M49.4,33.3c0.2-0.1,0.3-0.3,0.5-0.4c2.5-2.5,5-5,7.4-7.4c0.1-0.1,0.3-0.3,0.5-0.4c0.2-0.1,0.3-0.1,0.3,0.1
		c-0.1,0.2-0.3,0.3-0.4,0.5c-2.6,2.6-5.1,5.1-7.7,7.7c-0.1,0.1-0.3,0.3-0.5,0.4c0,0-0.1,0-0.1,0c-0.1-0.1-0.1-0.2-0.1-0.3
		C49.3,33.4,49.3,33.3,49.4,33.3z"/>
	<path class="st6" d="M28,34.4c0-0.2,0-0.3,0-0.5c0-0.1,0.1-0.2,0.1-0.2c2.3-2.2,4.5-4.4,6.7-6.7c0.1,0,0.2-0.1,0.2-0.1
		c0.2-0.1,0.3-0.3,0.6-0.1c-0.1,0.2-0.3,0.3-0.4,0.5c-2.3,2.3-4.5,4.5-6.8,6.8C28.3,34.1,28.1,34.2,28,34.4z"/>
	<path class="st5" d="M27.9,71.3c-0.1,0.2-0.3,0.5-0.4,0.7c-0.3,0.5-0.7,0.9-1,1.4c-0.3-0.1-0.3,0.1-0.4,0.3
		c-1.7,1.7-3.4,3.4-5.1,5.1c-0.1,0.1-0.3,0.3-0.5,0.4c-0.3,0-0.2-0.2-0.1-0.3c0.4-0.4,0.8-0.8,1.2-1.2c2-2,4-4,5.9-5.9
		C27.6,71.5,27.7,71.3,27.9,71.3z"/>
	<path class="st3" d="M27.4,55.2c-0.1-0.3-0.2-0.7-0.3-1c0-0.1-0.2-0.2-0.1-0.4c0.6-0.5,1-1.1,1.7-1.6c0.2-0.1,0.4-0.1,0.6-0.1
		c0.4,0,0.8-0.1,1.2-0.1c0.2,0.1,0.1,0.3,0,0.4c-1,1-1.9,2-2.9,2.9c0,0-0.1,0-0.1,0C27.5,55.2,27.4,55.2,27.4,55.2z"/>
	<path class="st3" d="M49.4,33.3c0,0,0,0.1,0,0.1c-0.4,0.7-1,1.2-1.6,1.7c-0.2,0.1-0.4,0.1-0.6,0.1c-0.4,0-0.8,0.2-1.2,0.1
		c-0.2-0.1-0.1-0.3,0-0.4c0.9-1,1.8-1.9,2.8-2.8c0.1-0.1,0.1-0.1,0.2,0C49.1,32.5,49.2,32.9,49.4,33.3z"/>
	<path class="st5" d="M53.8,75.6c0.1,0.1,0.2,0.2,0.4,0.3c-0.3,0-0.4,0.2-0.6,0.4c-2.1,2.1-4.1,4.1-6.2,6.2
		c-0.1,0.1-0.3,0.3-0.5,0.4c-0.2,0.1-0.3,0.1-0.3-0.1c0.5-0.5,1-1.1,1.5-1.6c1.7-1.7,3.4-3.4,5.2-5.2c0.1-0.1,0.3-0.3,0.4-0.5
		C53.7,75.6,53.8,75.6,53.8,75.6z"/>
	<path class="st2" d="M77.9,61.4c-0.1-0.1-0.2-0.3-0.3-0.3c-0.2-0.3-0.5-0.6-0.8-0.8c0,0,0-0.1,0-0.1c0.3-0.5,0.8-0.9,1.2-1.3
		c0.2-0.2,0.4-0.5,0.4-0.8c0-0.2,0.2-0.3,0.3-0.3c0,1.5,0,2.9,0,4.4C78.4,61.8,78.1,61.6,77.9,61.4z"/>
	<path class="st5" d="M48.8,31.8c0-0.1,0-0.2-0.1-0.2c0.3,0,0.4-0.2,0.6-0.4c1.9-1.9,3.8-3.8,5.7-5.7c0.1-0.1,0.3-0.3,0.5-0.4
		c0.2-0.1,0.3-0.1,0.3,0.1c-0.6,0.6-1.2,1.3-1.9,1.9c-1.7,1.7-3.3,3.3-5,5C48.8,32,48.8,31.9,48.8,31.8z"/>
	<path class="st2" d="M78.7,52.7c-0.3,0-0.5,0.2-0.7,0.4c-1.1,1.2-2.3,2.3-3.4,3.4c-0.2,0.2-0.3,0.4-0.6,0.2c-0.3-0.3,0-0.4,0.2-0.6
		c1.5-1.5,3-3,4.6-4.5C78.7,52,78.7,52.4,78.7,52.7z"/>
	<path class="st2" d="M64.4,44.5c0,0,0.1,0,0.1,0c0.5,0,1.1,0,1.6,0c0,0.2,0,0.3-0.1,0.4c-0.8,0.8-1.5,1.6-2.4,2.3
		c-0.1,0-0.1,0-0.2,0c-0.3-0.2-0.6-0.5-0.9-0.8c0-0.1,0-0.1,0-0.2C63.2,45.6,63.7,44.9,64.4,44.5z"/>
	<path class="st5" d="M47.2,35.2c0.2-0.2,0.4-0.1,0.6-0.1c0.2-0.1,0.4-0.2,0.6-0.2c0.1,0,0.1,0.1,0.1,0.1c-0.2,0.2-0.4,0.3-0.6,0.5
		c-1.9,1.8-3.7,3.7-5.6,5.6c-0.1,0.1-0.3,0.3-0.4,0.4c0,0-0.1,0-0.1,0c-0.1,0-0.2,0.1-0.2,0c-0.1,0-0.1-0.1-0.1-0.2
		c0-0.3,0.3-0.5,0.5-0.6c1.6-1.6,3.3-3.3,4.9-4.9C47,35.6,47.2,35.5,47.2,35.2z"/>
	<path class="st6" d="M50.7,51.3c-2.1,2-4.2,4.1-6.2,6.2c0,0-0.1,0-0.1,0s-0.1,0-0.1,0c-0.1,0-0.1-0.1-0.2-0.1
		c-0.1-0.1-0.1-0.1-0.2-0.2c0.3,0,0.4-0.2,0.6-0.4c1.8-1.8,3.7-3.7,5.5-5.5c0.1-0.1,0.2-0.4,0.5-0.3c0,0.1,0,0.2,0,0.2
		C50.7,51.3,50.7,51.3,50.7,51.3z"/>
	<path class="st6" d="M37.2,47.9c2-2,4.1-4,6-6c0,0,0.1,0,0.1,0c0.1,0.1,0.2,0.1,0.3,0.2c-2.1,2.2-4.3,4.4-6.5,6.5
		C37,48.3,37,48.2,37.1,48C37.1,47.9,37.1,47.9,37.2,47.9z"/>
	<path class="st6" d="M44.4,54.6c1.8-1.8,3.6-3.5,5.4-5.3c0.2-0.2,0.4-0.3,0.6-0.5c0,0.1,0.1,0.2,0.1,0.3c0,0,0,0.1,0,0.1
		c-2,2-4,4-6,6c-0.1,0.1-0.2,0.4-0.5,0.3c-0.1-0.2,0.1-0.4,0.2-0.6C44.2,54.8,44.2,54.6,44.4,54.6z"/>
	<path class="st4" d="M67.1,50.5c0.5-0.4,0.9-0.9,1.4-1.3c1.6-1.6,3.1-3.1,4.7-4.7c0,0,0.1,0,0.1,0c0.2-0.1,0.3-0.1,0.5,0
		c-2.1,2.1-4.2,4.3-6.4,6.4C67.2,50.8,67,50.8,67.1,50.5z"/>
	<path class="st5" d="M29.3,52.2c-0.2,0.2-0.4,0.1-0.6,0.1c-0.2,0.1-0.3,0.1-0.5,0c0.7-0.8,1.4-1.5,2.2-2.2c1.1-1.1,2.2-2.2,3.3-3.3
		c0.1-0.1,0.3-0.3,0.4-0.5c0.1,0,0.2,0,0.2,0.1c0.1,0,0.2,0,0.2,0c0,0,0.1,0.1,0.1,0.2c0,0.3-0.3,0.5-0.5,0.6c-1.5,1.5-3,3-4.5,4.5
		C29.5,51.8,29.2,51.9,29.3,52.2z"/>
	<path class="st7" d="M64.6,65.2c1.1-1.1,2.1-2.3,3.2-3.4c0.2-0.2,0.3-0.3,0.5-0.5c1.4-1.4,2.8-2.9,4.1-4.3c0.2-0.2,0.4-0.4,0.6-0.6
		c0,0,0,0,0.1,0c0.1,0,0.2,0.1,0.2,0.2c0,0,0,0.1,0,0.1c-0.5,0.5-1,1-1.5,1.5c-2.2,2.2-4.4,4.4-6.6,6.6C65,64.9,64.8,65.1,64.6,65.2
		z"/>
	<path class="st5" d="M47.9,30.3c0,0,0-0.1,0-0.1c1.6-1.5,3.1-3.1,4.7-4.6c0.2-0.2,0.4-0.3,0.6-0.5c0.2-0.1,0.3-0.1,0.3,0.1
		c-1.6,1.6-3.2,3.2-4.8,4.8c-0.2,0.2-0.4,0.3-0.5,0.6c0,0-0.1,0-0.1,0C48,30.5,47.9,30.4,47.9,30.3z"/>
	<path class="st2" d="M78.7,55.1c-0.3,0-0.5,0.2-0.7,0.4c-0.8,0.8-1.6,1.6-2.4,2.4c-0.1,0.1-0.3,0.4-0.5,0.2c-0.3-0.3,0-0.4,0.1-0.6
		c1.2-1.2,2.4-2.3,3.5-3.5C78.7,54.4,78.7,54.7,78.7,55.1z"/>
	<path class="st4" d="M70.9,44.5c0.2,0,0.3,0,0.5,0c-1.6,1.6-3.1,3.1-4.7,4.7c-0.2,0.2-0.3,0.3-0.5,0.5c-0.2,0-0.4-0.1-0.4-0.4
		c0.8-0.6,1.4-1.4,2.1-2c0.9-0.9,1.9-1.9,2.8-2.8C70.8,44.5,70.9,44.5,70.9,44.5z"/>
	<path class="st6" d="M50.5,53.8c-1.5,1.5-3,2.9-4.4,4.4c-0.1,0.1-0.2,0.2-0.2,0.4c-0.1,0.1-0.2,0-0.3,0c-0.1-0.1-0.2-0.1-0.2-0.2
		c0,0,0-0.1,0-0.1c1.5-1.5,3-2.9,4.5-4.4c0.2-0.2,0.5-0.4,0.7-0.6c0,0.2,0,0.3,0,0.5C50.6,53.7,50.5,53.8,50.5,53.8z"/>
	<path class="st3" d="M33.1,61.8c0,0,0-0.1,0-0.1c1-1,1.9-1.9,2.9-2.9c0.1-0.1,0.3-0.3,0.5-0.2c0,0,0,0,0,0c0,0,0,0,0,0.1
		c-0.8,1.2-1.6,2.4-2.4,3.6C33.8,62,33.4,61.9,33.1,61.8z"/>
	<path class="st5" d="M46.8,29c0,0,0-0.1,0-0.1c1.1-0.9,2.1-2,3.1-3c0.3-0.3,0.6-0.6,0.9-0.8c0.2-0.1,0.3-0.1,0.3,0.1
		c-1.2,1.2-2.3,2.4-3.5,3.5c-0.2,0.2-0.3,0.4-0.5,0.6c0,0-0.1,0-0.1,0C46.9,29.2,46.9,29.1,46.8,29z"/>
	<path class="st4" d="M68.6,44.5c0.2,0,0.3,0,0.5,0c-1.2,1.2-2.4,2.4-3.5,3.6c-0.2,0.2-0.3,0.3-0.4,0.5c-0.2,0-0.4-0.1-0.4-0.4
		c1.3-1.2,2.5-2.5,3.8-3.7C68.5,44.5,68.6,44.5,68.6,44.5z"/>
	<path class="st8" d="M61.5,45.2c-0.1-0.1-0.2-0.2-0.4-0.4c-0.1-0.1-0.1-0.2-0.2-0.3c0.3,0,0.5,0,0.7,0c0.2,0,0.4,0,0.6,0
		c0.5,0,1.1,0,1.6,0c0,0.5-0.5,0.6-0.7,1c-0.2,0.2-0.4,0.4-0.6,0.6c-0.1,0-0.1,0-0.2,0C62,45.8,61.7,45.6,61.5,45.2z"/>
	<path class="st6" d="M48.8,31.8c0.1,0.1,0.1,0.2,0.2,0.2c0,0,0,0.1,0,0.1c-1.1,1-2.1,2-3.1,3.1c-0.1,0.1-0.1,0.1-0.2,0
		c-0.1-0.1-0.5,0.1-0.2-0.2C46.5,34,47.5,32.7,48.8,31.8z"/>
	<path class="st5" d="M45.9,28.2C45.9,28.2,45.8,28.2,45.9,28.2l-0.1,0c-0.1,0-0.2,0-0.2-0.1c0,0,0-0.1,0-0.1c0.9-1,1.9-2,2.9-2.9
		c0.2-0.1,0.3-0.1,0.3,0.1c-0.8,0.8-1.6,1.7-2.5,2.5C46.2,27.8,46.1,28,45.9,28.2z"/>
	<path class="st4" d="M63.6,47.1c0.9-0.9,1.7-1.8,2.6-2.6c0,0,0.1,0,0.1,0c0.2,0,0.3,0,0.5,0c-0.8,0.8-1.6,1.6-2.4,2.4
		c-0.2,0.2-0.3,0.3-0.4,0.5C63.7,47.5,63.5,47.4,63.6,47.1z"/>
	<path class="st9" d="M40,66.1c0,0-0.1,0-0.1,0c-0.5,0-1.1,0-1.6,0c0.1-0.6,0.6-0.9,1.1-1.2c0.5,0,0.8,0.4,1.1,0.7
		C40.4,65.9,40.2,66,40,66.1z"/>
	<path class="st5" d="M76,44.5c-0.2,0-0.3,0-0.5,0c0.8-0.8,1.6-1.7,2.4-2.4c0.3,0,0.2,0.2,0.1,0.3c-0.7,0.7-1.3,1.4-2,2.1
		C76.1,44.5,76.1,44.5,76,44.5z"/>
	<path class="st10" d="M22.9,78.6c-0.1,0.2-0.3,0.5-0.4,0.7c-0.4,0.5-0.8,1-1.1,1.6c-0.4-0.1-0.5,0.5-0.8,0.6c-0.2,0-0.3,0-0.2-0.2
		C21.1,80.2,21.9,79.4,22.9,78.6z"/>
	<path class="st5" d="M43.9,27.2C43.9,27.2,43.9,27.2,43.9,27.2c0.7-0.8,1.5-1.5,2.2-2.2c0.2-0.1,0.3,0,0.3,0.1
		c-0.7,0.7-1.4,1.5-2.1,2.2c0,0-0.1,0-0.1,0C44.1,27.4,44,27.4,43.9,27.2z"/>
	<path class="st11" d="M35.7,26.7c-0.2,0-0.4,0.1-0.6,0.1c0.7-0.7,1.3-1.4,2.1-2.1c0,0.2,0,0.4,0,0.6c-0.2,0.5-0.7,0.7-0.9,1.2
		c0,0-0.1,0.1-0.1,0.1C36,26.7,35.8,26.5,35.7,26.7L35.7,26.7z"/>
	<path class="st12" d="M62.4,46c0.5-0.5,0.9-1,1.4-1.5c0,0,0.1,0,0.1,0c0.2,0,0.3,0,0.5,0c-0.5,0.6-1.1,1.2-1.7,1.7
		C62.5,46.3,62.4,46.2,62.4,46z"/>
	<path class="st5" d="M42.8,26.8c-0.1,0-0.2,0-0.3-0.1c-0.1,0.1-0.2,0-0.2,0c0,0,0-0.1,0-0.1c0.5-0.5,1.1-1,1.6-1.5
		c0.2-0.1,0.3-0.1,0.3,0.1c-0.4,0.4-0.7,0.7-1.1,1.1C43,26.4,42.8,26.5,42.8,26.8z"/>
	<path class="st13" d="M28.2,52.3c0.2,0,0.3,0,0.5,0c-0.5,0.5-0.9,1.1-1.6,1.5c0-0.1,0-0.2,0-0.3c0.1-0.6,0.6-0.8,0.9-1.1
		C28.1,52.4,28.1,52.3,28.2,52.3z"/>
	<path class="st14" d="M39.3,64.9c-0.4,0.4-0.7,0.8-1.1,1.2c0,0-0.1,0-0.1,0c-0.2,0-0.3,0-0.5,0c0.1-0.4,0.5-0.6,0.8-0.9
		c0.2-0.2,0.3-0.3,0.5-0.5c0,0,0.1,0,0.1,0c0.1,0,0.2,0.1,0.3,0.2C39.3,64.8,39.3,64.9,39.3,64.9z"/>
	<path class="st15" d="M49.4,33.7C49.4,33.8,49.5,33.8,49.4,33.7c0.2,1.1,0.2,1.1-0.9,1.2c0,0,0,0-0.1,0c0,0,0,0,0,0
		C48.6,34.4,49.1,34.1,49.4,33.7z"/>
	<path class="st15" d="M28,52.4c-0.3,0.4-0.6,0.7-0.9,1.1c0,0-0.1,0-0.1,0C26.9,52.4,26.9,52.4,28,52.4z"/>
	<path class="st16" d="M40.9,26.3L40.9,26.3l-0.1,0c-0.2-0.2-0.1-0.4,0-0.6c0,0,0-0.1,0-0.1c0.2-0.2,0.5-0.4,0.7-0.6
		c0.2-0.1,0.3-0.1,0.3,0.1C41.6,25.6,41,25.8,40.9,26.3z"/>
	<path class="st17" d="M20.3,81.1c0,0.1,0.1,0.2,0.2,0.2c-0.1,0.2-0.3,0.3-0.4,0.5c-0.1,0.1-0.2,0.3-0.4,0.1c-0.1-0.1,0-0.3,0.1-0.4
		C20,81.4,20.1,81.3,20.3,81.1z"/>
	<path class="st17" d="M46.5,25.2c-0.1,0-0.2-0.1-0.3-0.1c0,0,0.1-0.1,0.1-0.1c0.2-0.2,0.5-0.6,0.7-0.4C47.2,24.8,46.7,25,46.5,25.2
		z"/>
	<path class="st17" d="M27.9,25.2C27.8,25,27.6,25,27.5,25c0,0,0.1-0.1,0.1-0.1c0.2-0.2,0.5-0.6,0.7-0.4
		C28.5,24.8,28.1,25,27.9,25.2z"/>
	<path class="st17" d="M25.5,25.2C25.5,25,25.3,25,25.2,25c0,0,0.1-0.1,0.1-0.1c0.2-0.2,0.5-0.6,0.7-0.4
		C26.2,24.8,25.7,25,25.5,25.2z"/>
	<path class="st17" d="M78.1,42.4c0-0.1,0-0.3-0.1-0.3c0.2-0.2,0.4-0.7,0.6-0.4c0.3,0.2-0.2,0.5-0.4,0.7
		C78.2,42.3,78.2,42.4,78.1,42.4z"/>
	<path class="st17" d="M78.1,63.3c0-0.1,0-0.3-0.1-0.3c0.2-0.2,0.4-0.7,0.6-0.4c0.3,0.2-0.2,0.5-0.4,0.7
		C78.2,63.3,78.2,63.3,78.1,63.3z"/>
	<path class="st18" d="M38.9,64.6c-0.3,0.6-0.9,0.9-1.3,1.5c0,0-0.1,0-0.1,0c0,0-0.1,0-0.1,0C37.9,65.6,38.3,65,38.9,64.6z"/>
	<path class="st17" d="M78.1,65.7c0-0.1,0-0.3-0.1-0.3c0.2-0.2,0.4-0.7,0.6-0.4c0.3,0.2-0.2,0.5-0.4,0.7
		C78.2,65.6,78.2,65.6,78.1,65.7z"/>
	<path class="st17" d="M65.2,82.8c0.1,0.1,0.2,0.1,0.3,0.1c0,0-0.1,0.1-0.1,0.1c-0.2,0.2-0.5,0.6-0.7,0.4C64.5,83.1,65,83,65.2,82.8
		z"/>
	<path class="st17" d="M62.9,82.8c0.1,0.1,0.2,0.1,0.3,0.1c0,0-0.1,0.1-0.1,0.1c-0.2,0.2-0.5,0.6-0.7,0.4
		C62.2,83.1,62.7,83,62.9,82.8z"/>
	<path class="st17" d="M20.3,67.2c0,0.1,0,0.3,0.1,0.3c-0.2,0.2-0.4,0.7-0.6,0.4c-0.3-0.2,0.2-0.5,0.4-0.7
		C20.2,67.2,20.3,67.2,20.3,67.2z"/>
	<path class="st17" d="M20.3,69.5c0,0.1,0,0.3,0.1,0.3c-0.2,0.2-0.4,0.7-0.6,0.4c-0.3-0.2,0.2-0.5,0.4-0.7
		C20.2,69.5,20.3,69.5,20.3,69.5z"/>
	<path class="st17" d="M20.3,71.8c0,0.1,0,0.3,0.1,0.3c-0.2,0.2-0.4,0.7-0.6,0.4c-0.3-0.2,0.2-0.5,0.4-0.7
		C20.2,71.9,20.3,71.9,20.3,71.8z"/>
	<path class="st17" d="M60.4,25.2C60.4,25,60.2,25,60.1,25c0,0,0.1-0.1,0.1-0.1c0.2-0.2,0.5-0.6,0.7-0.4
		C61.1,24.8,60.6,25,60.4,25.2z"/>
	<path class="st17" d="M58.1,25.2C58,25,57.9,25,57.8,25c0,0,0.1-0.1,0.1-0.1c0.2-0.2,0.5-0.6,0.7-0.4C58.8,24.8,58.3,25,58.1,25.2z
		"/>
	<path class="st17" d="M55.8,25.2C55.7,25,55.6,25,55.4,25c0,0,0.1-0.1,0.1-0.1c0.2-0.2,0.5-0.6,0.7-0.4C56.5,24.8,56,25,55.8,25.2z
		"/>
	<path class="st17" d="M20.3,74.2c0,0.1,0,0.3,0.1,0.3c-0.2,0.2-0.4,0.7-0.6,0.4c-0.3-0.2,0.2-0.5,0.4-0.7
		C20.2,74.2,20.3,74.2,20.3,74.2z"/>
	<path class="st17" d="M53.5,25.2C53.4,25,53.2,25,53.1,25c0,0,0.1-0.1,0.1-0.1c0.2-0.2,0.5-0.6,0.7-0.4
		C54.1,24.8,53.7,25,53.5,25.2z"/>
	<path class="st17" d="M51.1,25.2C51.1,25,50.9,25,50.8,25c0,0,0.1-0.1,0.1-0.1c0.2-0.2,0.5-0.6,0.7-0.4
		C51.8,24.8,51.3,25,51.1,25.2z"/>
	<path class="st17" d="M48.8,25.2C48.7,25,48.6,25,48.5,25c0,0,0.1-0.1,0.1-0.1c0.2-0.2,0.5-0.6,0.7-0.4C49.5,24.8,49,25,48.8,25.2z
		"/>
	<path class="st17" d="M20.3,76.5c0,0.1,0,0.3,0.1,0.3c-0.2,0.2-0.4,0.7-0.6,0.4c-0.3-0.2,0.2-0.5,0.4-0.7
		C20.2,76.5,20.3,76.5,20.3,76.5z"/>
	<path class="st17" d="M44.2,25.2C44.1,25,43.9,25,43.8,25c0,0,0.1-0.1,0.1-0.1c0.2-0.2,0.5-0.6,0.7-0.4
		C44.8,24.8,44.4,25,44.2,25.2z"/>
	<path class="st17" d="M41.8,25.2C41.7,25,41.6,25,41.5,25c0,0,0.1-0.1,0.1-0.1c0.2-0.2,0.5-0.6,0.7-0.4C42.5,24.8,42,25,41.8,25.2z
		"/>
	<path class="st17" d="M20.3,78.8c0,0.1,0,0.3,0.1,0.3c-0.2,0.2-0.4,0.7-0.6,0.4c-0.3-0.2,0.2-0.5,0.4-0.7
		C20.2,78.9,20.3,78.8,20.3,78.8z"/>
	<path class="st17" d="M34.8,25.2C34.8,25,34.6,25,34.5,25c0,0,0.1-0.1,0.1-0.1c0.2-0.2,0.5-0.6,0.7-0.4C35.5,24.8,35,25,34.8,25.2z
		"/>
	<path class="st17" d="M32.5,25.2C32.4,25,32.3,25,32.2,25c0,0,0.1-0.1,0.1-0.1c0.2-0.2,0.5-0.6,0.7-0.4
		C33.2,24.8,32.7,25,32.5,25.2z"/>
	<path class="st17" d="M30.2,25.2C30.1,25,30,25,29.8,25c0,0,0.1-0.1,0.1-0.1c0.2-0.2,0.5-0.6,0.7-0.4C30.9,24.8,30.4,25,30.2,25.2z
		"/>
	<path class="st17" d="M21,82.8c0.1,0.1,0.2,0.1,0.3,0.1c0,0-0.1,0.1-0.1,0.1c-0.2,0.2-0.5,0.6-0.7,0.4C20.3,83.1,20.8,83,21,82.8z"
		/>
	<path class="st17" d="M23.3,82.8c0.1,0.1,0.2,0.1,0.3,0.1c0,0-0.1,0.1-0.1,0.1c-0.2,0.2-0.5,0.6-0.7,0.4
		C22.6,83.1,23.1,83,23.3,82.8z"/>
	<path class="st17" d="M25.7,82.8c0.1,0.1,0.2,0.1,0.3,0.1c0,0-0.1,0.1-0.1,0.1c-0.2,0.2-0.5,0.6-0.7,0.4C25,83.1,25.5,83,25.7,82.8
		z"/>
	<path class="st17" d="M28,82.8c0.1,0.1,0.2,0.1,0.3,0.1c0,0-0.1,0.1-0.1,0.1c-0.2,0.2-0.5,0.6-0.7,0.4C27.3,83.1,27.8,83,28,82.8z"
		/>
	<path class="st17" d="M30.3,82.8c0.1,0.1,0.2,0.1,0.3,0.1c0,0-0.1,0.1-0.1,0.1c-0.2,0.2-0.5,0.6-0.7,0.4
		C29.6,83.1,30.1,83,30.3,82.8z"/>
	<path class="st17" d="M32.6,82.8c0.1,0.1,0.2,0.1,0.3,0.1c0,0-0.1,0.1-0.1,0.1c-0.2,0.2-0.5,0.6-0.7,0.4C32,83.1,32.4,83,32.6,82.8
		z"/>
	<path class="st17" d="M35,82.8c0.1,0.1,0.2,0.1,0.3,0.1c0,0-0.1,0.1-0.1,0.1c-0.2,0.2-0.5,0.6-0.7,0.4C34.3,83.1,34.8,83,35,82.8z"
		/>
	<path class="st17" d="M37.3,82.8c0.1,0.1,0.2,0.1,0.3,0.1c0,0-0.1,0.1-0.1,0.1c-0.2,0.2-0.5,0.6-0.7,0.4
		C36.6,83.1,37.1,83,37.3,82.8z"/>
	<path class="st17" d="M46.6,82.8c0.1,0.1,0.2,0.1,0.3,0.1c0,0-0.1,0.1-0.1,0.1c-0.2,0.2-0.5,0.6-0.7,0.4
		C45.9,83.1,46.4,83,46.6,82.8z"/>
	<path class="st17" d="M48.9,82.8c0.1,0.1,0.2,0.1,0.3,0.1c0,0-0.1,0.1-0.1,0.1c-0.2,0.2-0.5,0.6-0.7,0.4
		C48.2,83.1,48.7,83,48.9,82.8z"/>
	<path class="st17" d="M51.3,82.8c0.1,0.1,0.2,0.1,0.3,0.1c0,0-0.1,0.1-0.1,0.1c-0.2,0.2-0.5,0.6-0.7,0.4
		C50.6,83.1,51.1,83,51.3,82.8z"/>
	<path class="st17" d="M53.6,82.8c0.1,0.1,0.2,0.1,0.3,0.1c0,0-0.1,0.1-0.1,0.1c-0.2,0.2-0.5,0.6-0.7,0.4
		C52.9,83.1,53.4,83,53.6,82.8z"/>
	<path class="st17" d="M55.9,82.8c0.1,0.1,0.2,0.1,0.3,0.1c0,0-0.1,0.1-0.1,0.1c-0.2,0.2-0.5,0.6-0.7,0.4
		C55.2,83.1,55.7,83,55.9,82.8z"/>
	<path class="st17" d="M58.2,82.8c0.1,0.1,0.2,0.1,0.3,0.1c0,0-0.1,0.1-0.1,0.1c-0.2,0.2-0.5,0.6-0.7,0.4C57.6,83.1,58,83,58.2,82.8
		z"/>
	<path class="st17" d="M60.6,82.8c0.1,0.1,0.2,0.1,0.3,0.1c0,0-0.1,0.1-0.1,0.1c-0.2,0.2-0.5,0.6-0.7,0.4
		C59.9,83.1,60.4,83,60.6,82.8z"/>
	<path class="st17" d="M78.4,44.5c-0.2,0-0.3,0-0.5,0c0.1-0.1,0.2-0.3,0.4-0.4c0.1-0.1,0.2-0.3,0.4-0.2c0.1,0.1,0.1,0.3,0,0.4
		c0,0.1-0.1,0.1-0.1,0.2C78.5,44.5,78.4,44.5,78.4,44.5z"/>
	<path class="st19" d="M40,66.1c0.1-0.1,0.2-0.3,0.3-0.4c0,0,0.1-0.1,0.1-0.1c0.1,0.1,0.2,0.1,0.2,0.3c0,0,0.1,0.1,0.1,0.1
		c-0.1,0.1-0.2,0.1-0.4,0.1C40.3,66.1,40.1,66.1,40,66.1z"/>
	<path class="st3" d="M27.9,36.7c0-0.1-0.1-0.2-0.1-0.3c0.1-0.2-0.1-0.5,0.1-0.7c0,0.2,0,0.3,0,0.5C28,36.4,28,36.5,27.9,36.7z"/>
	<path class="st4" d="M51.5,73.8c-0.1,0-0.3-0.1-0.3-0.2c0.2-0.2,0.3-0.4,0.5-0.5c8.7-8.7,17.5-17.5,26.2-26.2
		c0.1-0.1,0.3-0.6,0.5-0.3c0.3,0.3-0.1,0.5-0.3,0.6C69.4,55.9,60.7,64.6,52,73.3C51.8,73.4,51.6,73.6,51.5,73.8z"/>
	<path class="st4" d="M52.7,74.8c-0.1,0-0.1-0.1-0.2-0.1c0-0.2,0.2-0.4,0.3-0.5c8.3-8.4,16.7-16.7,25.1-25c0.1-0.1,0.2-0.4,0.4-0.2
		c0.3,0.2,0,0.4-0.2,0.6c-1.8,1.8-3.6,3.6-5.4,5.4c-6.5,6.5-13,13-19.5,19.5C53.1,74.4,52.9,74.6,52.7,74.8z"/>
	<path class="st4" d="M47.3,70.8c-0.1,0-0.2-0.1-0.3-0.2c0.1-0.1,0.3-0.2,0.4-0.4c3.8-3.8,7.7-7.7,11.5-11.5
		c0.1-0.1,0.3-0.3,0.4-0.5c0-0.3,0.2-0.4,0.4-0.6c0.9-0.9,1.9-1.7,2.8-2.6c0.4-0.2,0.7-0.6,1-0.9c0.2-0.2,0.4-0.4,0.7-0.4
		c0.2,0.2-0.1,0.3-0.2,0.3c-5.5,5.5-11,11-16.5,16.5C47.6,70.6,47.5,70.8,47.3,70.8z"/>
	<path class="st20" d="M64.4,53.7c-0.6,0.5-1.1,1-1.7,1.5c-0.1-0.2,0.1-0.4,0.2-0.5c1.4-1.4,2.7-2.8,4.1-4.1c0,0,0.1,0,0.1,0
		c0.1,0.1,0.2,0.2,0.3,0.3c-0.8,0.8-1.7,1.5-2.5,2.3C64.7,53.3,64.5,53.5,64.4,53.7z"/>
	<path class="st6" d="M40.8,25.7c0,0.2,0,0.4,0,0.6c-0.2,0.2-0.4,0.3-0.5,0.5c-3.9,3.9-7.8,7.8-11.7,11.7c-0.2,0.2-0.3,0.3-0.5,0.4
		c0-0.1,0-0.2,0-0.3c0-0.2,0.2-0.3,0.3-0.5c4.1-4.1,8.1-8.1,12.2-12.2C40.6,25.9,40.7,25.8,40.8,25.7z"/>
	<path class="st6" d="M27.9,36.7c0-0.2,0-0.3,0-0.5c0.2-0.2,0.4-0.3,0.5-0.5c3.6-3.5,7.1-7.1,10.7-10.6c0.2-0.2,0.4-0.6,0.7-0.3
		c0.2,0.2-0.2,0.4-0.4,0.6c-3.7,3.7-7.3,7.4-11,11c-0.1,0.1-0.3,0.3-0.5,0.4C27.8,36.8,27.8,36.7,27.9,36.7z"/>
	<path class="st21" d="M36.2,26.4c-0.3,0-0.1-0.2,0-0.2c0.3-0.3,0.6-0.6,1-0.9c0,0.1,0,0.1,0,0.2C37.2,26.4,37.2,26.4,36.2,26.4z"/>
	<path class="st3" d="M35.7,26.7c0.1-0.1,0.3-0.1,0.5-0.1C36,26.8,35.8,26.7,35.7,26.7z"/>
	<path class="st4" d="M39.3,64.8c-0.1-0.1-0.2-0.1-0.3-0.2c0.3-0.2,0.5-0.5,0.8-0.7c1.7-1.7,3.4-3.4,5.2-5.2
		c0.1-0.1,0.3-0.3,0.5-0.4c0.1,0,0.1,0.1,0.2,0.1c0.2,0.3-0.1,0.4-0.2,0.5c-1.9,1.9-3.8,3.8-5.7,5.7C39.7,64.8,39.5,65,39.3,64.8z"
		/>
	<path class="st22" d="M44.4,54.6c-0.1,0.1-0.2,0.2-0.2,0.4c-0.3,0.4-0.6,0.7-1,1.1c-0.1,0.1-0.2,0.3-0.5,0.2
		c-0.3-0.2-0.6-0.4-0.9-0.7c-0.1-0.3,0.1-0.4,0.3-0.5c0.7-0.7,1.3-1.3,2-2c0.1-0.1,0.3-0.4,0.5-0.3c0.2,0.1,0.1,0.4,0,0.6
		C44.7,53.8,44.5,54.2,44.4,54.6z"/>
	<path class="st5" d="M44.6,53.3c0-0.2,0-0.3,0-0.6c-1,1-2,1.9-2.8,2.9c0,0-0.1,0-0.1,0c-0.1-0.1-0.2-0.1-0.2-0.2c0,0,0-0.1,0-0.1
		c-0.1-0.2,0.1-0.3,0.2-0.4c0.8-0.9,1.7-1.7,2.5-2.5c0.1-0.1,0.2-0.3,0.4-0.2c0,0,0.1,0,0.1,0c0.1,0.1,0.1,0.2,0,0.3
		C44.7,52.8,44.8,53.1,44.6,53.3z"/>
	<path class="st23" d="M42.7,56.2c0.5-0.4,1-0.9,1.4-1.3c-0.1,0.2-0.2,0.4-0.3,0.6c-0.3,0.3-0.6,0.7-1,0.9c0,0-0.1,0-0.1,0
		C42.8,56.3,42.7,56.3,42.7,56.2z"/>
	<path class="st6" d="M28.8,40.7c-0.1-0.1-0.2-0.3-0.2-0.5c1.3-1.3,2.7-2.6,4-3.9c0.4-0.4,0.7-0.7,1.1-1.1c0.1-0.1,0.1-0.3,0.3-0.1
		c0.1,0.1,0.1,0.2,0.1,0.3c0,0.1-0.1,0.1-0.1,0.1C32.2,37.2,30.4,38.9,28.8,40.7z"/>
	<path class="st6" d="M42.2,26.7c0.1,0,0.1,0,0.2,0c0.1,0.1,0,0.2-0.1,0.3c-1.7,1.7-3.4,3.4-5.1,5.1c-0.2-0.2-0.1-0.3,0-0.5
		C38.8,30,40.5,28.3,42.2,26.7z"/>
	<path class="st24" d="M34.1,34.6c0.5-1.2,1-2.5,2.5-2.8c0.1,0,0.3,0,0.5-0.1c0.1,0.2-0.1,0.3-0.2,0.4c-0.8,0.8-1.5,1.5-2.3,2.3
		C34.5,34.5,34.3,34.7,34.1,34.6z"/>
	<path class="st5" d="M34.1,34.6c1-0.9,2-1.9,2.9-2.9c0,0,0.1,0,0.1,0c0,0.2,0,0.3,0,0.5c0,0,0,0.1,0,0.1c-0.1,0.3-0.4,0.6-0.7,0.8
		c-0.7,0.7-1.3,1.3-2,2c-0.2,0.2-0.3,0.4-0.6,0.3c0-0.1,0-0.2,0-0.3C34,34.9,34.1,34.7,34.1,34.6z"/>
	<path class="st4" d="M73.2,56.6c-0.1-0.1-0.1-0.1-0.2-0.2c0.4-0.6,0.9-1,1.4-1.5c1.2-1.2,2.4-2.4,3.7-3.7c0.1-0.1,0.2-0.3,0.4-0.1
		c0.1,0.1,0,0.3-0.1,0.4C76.6,53.2,75,55,73.2,56.6z"/>
	<path class="st4" d="M74.4,57.8c-0.1-0.1-0.1-0.1-0.2-0.2c0.8-1,1.8-1.9,2.7-2.8c0.4-0.4,0.8-0.8,1.1-1.1c0.1-0.1,0.2-0.3,0.4-0.1
		c0.1,0.1,0,0.3-0.1,0.4c0,0-0.1,0.1-0.1,0.1c-1.2,1.2-2.5,2.5-3.7,3.7C74.5,57.7,74.4,57.7,74.4,57.8z"/>
	<path class="st25" d="M75.5,58.9c-0.1-0.1-0.1-0.1-0.2-0.2c0.9-1,1.9-1.9,2.8-2.9c0.1-0.1,0.2-0.2,0.3-0.1c0.1,0.1,0.1,0.3,0,0.4
		c-0.3,0.3-0.6,0.6-0.9,0.9C76.8,57.7,76.3,58.4,75.5,58.9z"/>
	<path class="st25" d="M78.4,58c0.1,0.2,0.2,0.4,0,0.6c-0.6,0.5-1,1.1-1.6,1.5c-0.1-0.1-0.1-0.1-0.2-0.2C77,59.2,77.7,58.6,78.4,58z
		"/>
	<path class="st22" d="M34.7,55.1c-0.3-0.3-0.5-0.6-0.7-1.1c-0.1-0.2,0.1-0.3,0.2-0.4c0.8-0.8,1.7-1.7,2.5-2.5
		c0.1-0.1,0.2-0.3,0.4-0.2c0,0.5,0,1.1,0,1.6c0,0.1,0,0.1,0,0.2C36.4,53.5,35.7,54.4,34.7,55.1z"/>
	<path class="st6" d="M45.1,42.5c0.1,0,0.2,0.1,0.2,0.1c0,0,0,0.1-0.1,0.1c-2.7,2.7-5.4,5.4-8.1,8.1c-0.2-0.1-0.2-0.3-0.1-0.4
		c0-0.1,0.1-0.1,0.1-0.1c2.4-2.3,4.7-4.7,7.1-7C44.5,42.9,44.7,42.6,45.1,42.5z"/>
	<path class="st6" d="M46.9,43.5c-1.4,1.2-2.6,2.6-3.9,3.9c-0.3,0.3-0.6,0.7-1,0.9c-0.2,0.1-0.3,0.1-0.3-0.1c0.9-1,1.9-1.9,2.8-2.9
		c0.6-0.6,1.1-1.1,1.7-1.7c0.1-0.1,0.3-0.3,0.5-0.3C46.7,43.4,46.8,43.5,46.9,43.5z"/>
	<path class="st6" d="M37.2,52.6c0,0,0-0.1,0-0.1c1-1,2.1-2,3.1-3.1c0.2-0.1,0.3-0.3,0.5-0.4c0.1,0.1,0.1,0.3,0.1,0.4
		c0,0.1,0,0.1,0,0.2c-1,1.2-2.2,2.2-3.3,3.3c-0.1,0.1-0.2,0.3-0.4,0.1C37,52.9,37.1,52.8,37.2,52.6z"/>
	<path class="st5" d="M37.2,50.3c0,0.2,0,0.3,0,0.5c0,0,0,0.1,0,0.1c-1.1,1-2.1,2-3.1,3.2c0,0-0.1,0-0.1,0c-0.1-0.1-0.2-0.2-0.1-0.3
		c0,0,0-0.1,0-0.1c0.1-0.2,0.3-0.4,0.4-0.5c0.8-0.8,1.6-1.6,2.4-2.4C36.7,50.5,36.9,50.3,37.2,50.3z"/>
	<path class="st26" d="M40.8,49.5c0-0.2,0-0.3,0-0.5c0,0,0-0.1,0-0.1c0.1-0.3,0.3-0.5,0.6-0.7c0.1,0,0.2,0,0.2,0
		c0.1,0.1,0.2,0.1,0.3,0.1c0,0,0,0.1,0,0.1C41.7,48.9,41.4,49.3,40.8,49.5z"/>
	<path class="st27" d="M41.4,48.2c-0.1,0.3-0.3,0.5-0.6,0.7c0-0.1,0-0.2,0-0.3C40.7,48.1,40.9,48,41.4,48.2z"/>
	<path class="st6" d="M33,45.8c-0.2,0-0.3-0.1-0.4-0.2c0.1-0.1,0.2-0.3,0.3-0.4c2.5-2.5,5.1-5.1,7.6-7.6c0.1-0.1,0.1-0.1,0.2-0.2
		c0.2,0.1,0.2,0.3,0.1,0.4c0,0.1-0.1,0.1-0.1,0.1c-2.3,2.3-4.6,4.6-6.9,6.9C33.6,45.1,33.3,45.5,33,45.8z"/>
	<path class="st22" d="M43,33.5c0.2,0.4,0.4,0.7,0.4,1.1c0.1,0.2,0,0.3-0.2,0.4c-0.7,0.7-1.3,1.3-2,2c-0.1,0.1-0.2,0.2-0.4,0.2
		c0-0.5,0-1.1,0-1.6c0-0.1,0-0.1,0-0.2c0.5-0.7,1.2-1.2,1.8-1.8C42.6,33.6,42.8,33.4,43,33.5z"/>
	<path class="st6" d="M31.6,44.7c-0.1-0.1-0.1-0.2-0.2-0.2c1.3-1.5,2.8-2.8,4.1-4.2c0.2-0.2,0.4-0.4,0.5-0.6c0.2-0.1,0.4,0,0.5,0.2
		C34.9,41.5,33.3,43.2,31.6,44.7z"/>
	<path class="st6" d="M40.8,35.5c0,0,0,0.1,0,0.1c-1,1-2.1,2-3.1,3.1c-0.2,0.1-0.3,0.3-0.5,0.4C37,39,37,38.9,37.1,38.7
		c0-0.1,0-0.1,0-0.2c1-1.2,2.2-2.2,3.3-3.3c0.1-0.1,0.2-0.3,0.4-0.1C40.9,35.2,40.9,35.4,40.8,35.5z"/>
	<path class="st5" d="M40.8,37.3c0.9-0.8,1.8-1.7,2.6-2.6c0,0,0.1,0,0.1,0c0.1,0.1,0.1,0.2,0,0.3c0,0.1,0,0.2,0.1,0.3
		c-0.8,0.6-1.4,1.4-2.2,2.1c-0.2,0.2-0.3,0.4-0.6,0.4c0-0.2,0-0.3,0-0.5C40.8,37.3,40.8,37.3,40.8,37.3z"/>
	<path class="st26" d="M37.2,38.7c0,0.2,0,0.3,0,0.5c0,0,0,0.1,0,0.1c-0.1,0.3-0.3,0.5-0.6,0.6c0,0-0.1,0-0.1,0
		c-0.2-0.1-0.3-0.1-0.5-0.2c0,0,0-0.1,0-0.1C36.4,39.3,36.6,38.8,37.2,38.7z"/>
	<path class="st28" d="M36.6,39.8c0.1-0.2,0.3-0.4,0.6-0.6c0,0.1,0,0.2,0,0.2C37.2,40,37,40.1,36.6,39.8z"/>
	<path class="st22" d="M67,50.5c0,0.3-0.2,0.4-0.4,0.6c-1.2,1.2-2.4,2.4-3.5,3.5c-0.1,0.1-0.3,0.3-0.4,0.5c-1.1,1-2.2,2-3.3,3
		c-1.8,1.6-3.6,3.2-5.4,4.8c-0.2,0.2-0.4,0.3-0.5,0.5c-0.3,0.4-0.7,0.4-1,0c0-0.3,0.2-0.4,0.3-0.6c4.2-4.2,8.5-8.5,12.7-12.7
		c0.2-0.2,0.3-0.5,0.7-0.3C66.5,50,66.8,50.3,67,50.5z"/>
	<path class="st5" d="M66.3,49.8c-0.2,0-0.3,0.1-0.4,0.3c-4.4,4.4-8.8,8.8-13.2,13.2c0,0-0.1,0.1-0.1,0.1c0,0-0.1,0-0.1,0
		c-0.1,0-0.2-0.1-0.3-0.2c0,0,0-0.1,0-0.1c0-0.2,0.2-0.4,0.4-0.5c4.4-4.4,8.8-8.7,13.1-13.1c0,0,0.1-0.1,0.1-0.1c0,0,0.1,0,0.1,0
		C66,49.5,66.1,49.7,66.3,49.8C66.3,49.8,66.3,49.8,66.3,49.8z"/>
	<path class="st4" d="M52.2,63.2c0.1,0.1,0.2,0.1,0.3,0.2c-0.1,0.2-0.3,0.4-0.4,0.5c-1.8,1.8-3.6,3.6-5.5,5.5
		c-0.1,0.1-0.3,0.3-0.4,0.5c-0.1,0-0.3-0.1-0.3-0.2c0.2-0.3,0.5-0.5,0.7-0.8c1.7-1.7,3.5-3.5,5.2-5.2C51.9,63.5,52,63.4,52.2,63.2z"
		/>
	<path class="st22" d="M34.9,38.4c-0.2-0.3-0.4-0.6-0.6-0.9c0,0,0-0.1,0-0.2c0.8-0.9,1.7-1.7,2.6-2.6c0.1-0.1,0.2-0.2,0.4-0.1
		c0,0.5,0,1.1,0,1.6c0,0.1,0,0.1,0,0.2c-0.6,0.7-1.3,1.3-1.9,1.9C35.2,38.4,35.1,38.6,34.9,38.4z"/>
	<path class="st6" d="M43.9,27.2c0.1,0,0.2,0.1,0.3,0.1c-0.9,0.9-1.7,1.8-2.6,2.7c-1.5,1.5-3,2.9-4.4,4.4C37,34.4,37,34.2,37.1,34
		c0-0.1,0.1-0.1,0.1-0.1c2.1-2.1,4.1-4.1,6.2-6.2C43.6,27.5,43.8,27.4,43.9,27.2z"/>
	<path class="st6" d="M45.6,28.1c0.1,0,0.1,0.1,0.2,0.1c-1.3,1.4-2.6,2.7-4,4c-0.2,0.1-0.3,0-0.3-0.2c1.2-1.2,2.5-2.5,3.7-3.7
		C45.3,28.2,45.4,28.1,45.6,28.1z"/>
	<path class="st6" d="M37.2,36.3c0,0,0-0.1,0-0.1c1-1,2.1-2,3.1-3.1c0.2-0.1,0.3-0.3,0.5-0.4c0.1,0.1,0.1,0.3,0.1,0.4
		c0,0.1,0,0.1,0,0.2c-1,1.2-2.2,2.2-3.3,3.3c-0.1,0.1-0.2,0.3-0.4,0.1C37,36.6,37.1,36.5,37.2,36.3z"/>
	<path class="st5" d="M37.2,34c0,0.2,0,0.3,0,0.5c0,0,0,0.1,0,0.1c-1,0.9-1.9,1.9-2.9,2.8c-0.1,0-0.2-0.1-0.1-0.2
		c0-0.1,0-0.2-0.1-0.2c0.9-1,1.8-1.8,2.7-2.8C36.9,34.1,37,34,37.2,34z"/>
	<path class="st26" d="M40.8,33.2c0-0.2,0-0.3,0-0.5c0,0,0-0.1,0-0.1c0.1-0.3,0.3-0.5,0.6-0.6c0,0,0.1,0,0.1,0
		c0.1,0.1,0.2,0.1,0.3,0.2c0,0,0,0.1,0,0.1C41.6,32.7,41.3,33.1,40.8,33.2z"/>
	<path class="st27" d="M41.4,32c-0.1,0.3-0.3,0.4-0.6,0.6c0-0.3,0-0.6,0-0.8C41,31.8,41.2,31.9,41.4,32z"/>
	<path class="st6" d="M44.7,52.5c0-0.1,0-0.2,0-0.3c0-0.2,0.1-0.3,0.2-0.4c1.6-1.6,3.2-3.2,4.8-4.7c0.1,0.1,0.2,0.3,0.2,0.4
		c-1,0.9-1.9,1.9-2.9,2.8C46.3,51,45.5,51.8,44.7,52.5z"/>
	<path class="st22" d="M40.8,37.8c0.7-0.7,1.5-1.5,2.3-2.2c0.1-0.1,0.2-0.4,0.5-0.2c0.3,0.3,0.7,0,1,0.1c0.2-0.1,0.3-0.1,0.2,0.2
		c-0.1,0.2-0.2,0.3-0.3,0.4c-1,1.1-2.1,2.1-3.2,3.2c-0.2,0.2-0.3,0.4-0.6,0.3c0-0.5,0-1.1,0-1.6C40.8,37.9,40.8,37.9,40.8,37.8z"/>
	<path class="st6" d="M34.5,46.3c-0.1,0-0.1,0-0.2,0c0-0.1,0.1-0.2,0.1-0.3c2.1-2.1,4.3-4.2,6.4-6.3c0.1,0.1,0.1,0.3,0.1,0.4
		c0,0.1,0,0.1,0,0.2c-0.3,0.4-0.6,0.7-0.9,1c-1.6,1.6-3.1,3.1-4.7,4.7C35,46.2,34.9,46.5,34.5,46.3z"/>
	<path class="st5" d="M40.8,40.2c0-0.2,0-0.3,0-0.5c0,0,0-0.1,0-0.1c1.3-1.3,2.6-2.5,3.8-3.8c0.1-0.1,0.3-0.2,0-0.3
		c0.3-0.2,0.6-0.1,0.9-0.1c0.1,0.2-0.1,0.4-0.2,0.5c-1.3,1.4-2.7,2.7-4,4C41.2,40,41,40.2,40.8,40.2z"/>
	<path class="st22" d="M37.2,50.3c-1,0.9-1.9,1.9-2.9,2.8c-0.2,0.2-0.3,0.3-0.5,0.5c-0.3-0.4-0.4-0.8-0.5-1.3c0-0.2,0.2-0.3,0.3-0.4
		c1-1,2-2,3-3c0.1-0.1,0.3-0.3,0.5-0.3c0,0.5,0,1.1,0,1.6C37.2,50.2,37.2,50.3,37.2,50.3z"/>
	<path class="st5" d="M37.2,48.6c-1.1,1.1-2.2,2.2-3.3,3.3c-0.2,0.2-0.3,0.3-0.5,0.5c0,0-0.1,0-0.1,0c-0.1-0.1-0.1-0.1,0-0.2
		c0-0.1,0-0.1,0-0.2c0-0.2,0.1-0.3,0.3-0.4c1.1-1.1,2.1-2.2,3.2-3.2c0.1-0.1,0.3-0.3,0.5-0.3c0,0.2,0,0.3,0,0.5
		C37.2,48.5,37.2,48.5,37.2,48.6z"/>
	<path class="st6" d="M44.1,50.2c0.9-0.7,1.6-1.6,2.5-2.4c0.8-0.7,1.4-1.5,2.2-2.2c0.1,0.1,0.2,0.2,0.2,0.3
		c-1.4,1.3-2.7,2.7-4.1,4.1c-0.2,0.2-0.3,0.4-0.6,0.5C44.1,50.5,44.1,50.4,44.1,50.2z"/>
	<path class="st6" d="M48,44.7c-0.9,0.7-1.6,1.6-2.4,2.4c-0.8,0.7-1.5,1.5-2.2,2.2c-0.2,0-0.3,0-0.2-0.2c1-1.2,2.2-2.2,3.2-3.3
		c0.5-0.5,0.9-0.9,1.4-1.4C47.9,44.4,48,44.5,48,44.7z"/>
	<path class="st22" d="M62.7,46.3c0.3,0.3,0.5,0.5,0.8,0.8c0.1,0.3-0.1,0.4-0.3,0.5c-4.4,4.4-8.8,8.8-13.2,13.2
		c-0.2,0.1-0.3,0.4-0.6,0.2c-0.3-0.2-0.5-0.4-0.8-0.6c-0.2-0.3,0.1-0.4,0.2-0.5c0.2-0.3,0.5-0.5,0.8-0.8c4.1-4.1,8.3-8.3,12.5-12.4
		C62.2,46.6,62.3,46.2,62.7,46.3z"/>
	<path class="st5" d="M62.7,46.3c-0.2,0.2-0.4,0.3-0.5,0.5c-4.4,4.4-8.8,8.8-13.2,13.2c-0.2,0.2-0.4,0.3-0.4,0.6
		c-0.1,0-0.2-0.1-0.2-0.1c-0.1,0-0.2-0.1-0.2-0.1c0,0,0-0.1,0-0.1c0-0.3,0.2-0.4,0.4-0.5c4.4-4.4,8.9-8.9,13.3-13.3
		c0.1-0.1,0.3-0.3,0.5-0.4c0,0,0.1,0,0.1,0c0.1,0.1,0.2,0.2,0.2,0.2C62.7,46.3,62.7,46.3,62.7,46.3z"/>
	<path class="st5" d="M49.4,61.1c0.2,0,0.3-0.2,0.5-0.3c4.4-4.4,8.9-8.9,13.3-13.3c0.1-0.1,0.2-0.3,0.3-0.4c0,0,0.1,0,0.1,0
		c0.1,0.1,0.2,0.2,0.3,0.3c0,0,0,0,0,0.1c-0.2,0.3-0.4,0.5-0.6,0.7c-4.2,4.2-8.5,8.5-12.7,12.7c-0.2,0.2-0.4,0.5-0.7,0.5
		c0,0-0.1,0-0.1,0C49.6,61.4,49.5,61.4,49.4,61.1C49.4,61.2,49.4,61.1,49.4,61.1z"/>
	<path class="st4" d="M49.4,61.2c0.1,0,0.3,0.1,0.3,0.2c-0.2,0.3-0.5,0.5-0.7,0.8c-1.7,1.7-3.5,3.5-5.2,5.2
		c-0.1,0.1-0.3,0.3-0.4,0.5c-0.1-0.1-0.3-0.1-0.3-0.3c0.1-0.2,0.3-0.4,0.5-0.5c1.8-1.8,3.6-3.6,5.5-5.5
		C49.2,61.5,49.3,61.4,49.4,61.2z"/>
	<path class="st4" d="M48.2,60.3c0.1,0,0.1,0.1,0.2,0.1c0,0.2-0.2,0.3-0.3,0.5c-1.9,1.9-3.7,3.8-5.6,5.6c-0.1,0.1-0.2,0.3-0.5,0.3
		c-0.1-0.1-0.2-0.1-0.3-0.2c0.2-0.1,0.4-0.3,0.5-0.4c1.8-1.8,3.6-3.6,5.4-5.4C47.8,60.6,48,60.4,48.2,60.3z"/>
	<path class="st22" d="M65.8,49.4c0,0.2-0.2,0.3-0.3,0.5c-4.3,4.3-8.7,8.7-13,13c-0.1,0.1-0.2,0.2-0.4,0.3c-0.3-0.2-0.6-0.4-0.9-0.6
		c-0.1-0.3,0.2-0.5,0.3-0.7c1.3-1.3,2.7-2.7,4-4c2.9-2.9,5.8-5.8,8.8-8.8c0.2-0.2,0.3-0.6,0.7-0.4C65.4,48.9,65.6,49.1,65.8,49.4z"
		/>
	<path class="st5" d="M65.1,48.7c-0.2,0-0.4,0.2-0.5,0.4c-4.3,4.3-8.6,8.6-13,13c-0.1,0.1-0.3,0.3-0.4,0.5c0,0,0,0-0.1,0
		c-0.1,0-0.2-0.1-0.3-0.2c0,0,0-0.1,0-0.1c-0.1-0.4,0.2-0.5,0.4-0.7c4.2-4.2,8.4-8.4,12.6-12.6c0.2-0.2,0.4-0.5,0.7-0.7
		c0,0,0.1,0,0.1,0C64.8,48.4,64.9,48.5,65.1,48.7C65.1,48.6,65.1,48.6,65.1,48.7z"/>
	<path class="st4" d="M50.9,62.3c0.1,0.1,0.2,0.1,0.3,0.2c-0.2,0.1-0.4,0.3-0.5,0.4c-1.8,1.8-3.6,3.6-5.5,5.5
		c-0.2,0.2-0.3,0.4-0.6,0.4c-0.1,0-0.2-0.1-0.3-0.2c0.2-0.2,0.4-0.3,0.5-0.5c1.8-1.8,3.6-3.6,5.5-5.5C50.5,62.5,50.6,62.3,50.9,62.3
		z"/>
	<path class="st22" d="M64.6,48.2c0,0.3-0.3,0.4-0.4,0.6c-4.3,4.3-8.6,8.6-12.8,12.9c-0.2,0.2-0.3,0.3-0.5,0.5
		c-0.4-0.2-0.7-0.5-1-0.7c0.1-0.2,0.3-0.3,0.4-0.5c4.3-4.3,8.7-8.7,13-13c0.2-0.2,0.3-0.4,0.6-0.4C64.1,47.7,64.4,48,64.6,48.2z"/>
	<path class="st22" d="M62.3,46c-0.1,0.1-0.2,0.3-0.3,0.4c-4.5,4.5-9,9-13.6,13.6c-0.1,0.1-0.2,0.2-0.3,0.3
		c-0.2-0.1-0.4-0.2-0.6-0.5c0.1-0.3,0.4-0.5,0.6-0.7c0.5-0.6,0.9-1.1,1.2-1.8c0.1-0.2,0.1-0.4,0.4-0.5c0.2-0.1,0.4-0.3,0.5-0.4
		c3.6-3.6,7.2-7.2,10.7-10.7c0.2-0.2,0.3-0.3,0.5-0.5C61.8,45.4,62.1,45.7,62.3,46z"/>
	<path class="st4" d="M40.7,65.9c-0.1-0.1-0.2-0.1-0.3-0.2c-0.1-0.2,0.1-0.4,0.2-0.5c1.9-1.9,3.8-3.8,5.7-5.7
		c0.1-0.1,0.2-0.2,0.3-0.2c0.2,0,0.4,0,0.3,0.3c-0.6,0.7-1.3,1.3-1.9,2C43.7,63,42.2,64.4,40.7,65.9z"/>
	<path class="st6" d="M47.1,59.5c-0.1-0.1-0.2-0.2-0.3-0.2c0,0,0,0,0-0.1c0,0,0,0,0,0c0.3,0,0.4-0.2,0.6-0.4
		c0.9-0.8,1.7-1.8,2.6-2.5c-0.1,0.2-0.1,0.4-0.2,0.6c-0.1,0.2-0.2,0.3-0.3,0.5c-0.7,0.8-1.4,1.6-2.2,2.2
		C47.1,59.5,47.1,59.5,47.1,59.5z"/>
	<path class="st29" d="M47.2,59.5c0.7-0.8,1.4-1.5,2.2-2.2c-0.4,1-1,1.8-1.9,2.5C47.4,59.7,47.3,59.6,47.2,59.5z"/>
	<path class="st22" d="M37.2,34c-0.9,0.8-1.7,1.7-2.6,2.5c-0.1,0.1-0.3,0.3-0.5,0.4c-0.2-0.4-0.1-0.9-0.2-1.4c0,0,0-0.1,0-0.1
		c1.1-1,2.1-2.1,3.2-3.1c0,0.5,0,1.1,0,1.6C37.2,33.9,37.2,34,37.2,34z"/>
	<path class="st22" d="M44.6,52.2c-1.1,1-2.2,2.1-3.2,3.2c-0.3-0.1-0.5-0.3-0.7-0.5c-0.1-0.2-0.2-0.4-0.1-0.6
		c0.2-0.4,0.5-0.6,0.7-0.9c0.8-0.8,1.5-1.6,2.3-2.3c0.2-0.2,0.3-0.4,0.6-0.3C44.6,51.2,44.7,51.7,44.6,52.2z"/>
	<path class="st14" d="M36.5,58.7c-0.3-0.1-0.3,0.1-0.4,0.3c-0.8,0.8-1.6,1.6-2.4,2.4c-0.2,0.2-0.3,0.4-0.6,0.4
		c-0.1,0-0.1-0.1-0.2-0.1c0.9-1.1,2-2,3-3.1c0.4-0.5,0.9-0.9,1.3-1.4c0,0,0-0.1,0-0.1c0.2-0.2,0.3-0.6,0.7-0.5
		c0.1,0.4-0.2,0.5-0.4,0.7C37.2,57.7,36.8,58.2,36.5,58.7z"/>
	<path class="st30" d="M37.5,57.3c0.1-0.2,0.3-0.5,0.4-0.7c0.1-0.4,0.4-0.8,0.7-1c0.5-0.3,0.8-0.9,1.4-1.2c0.2,0,0.3,0,0.3,0.3
		c-0.8,1-1.8,1.8-2.7,2.7C37.6,57.3,37.6,57.3,37.5,57.3z"/>
	<path class="st31" d="M40.3,54.6c-0.1-0.1-0.2-0.2-0.3-0.2c0,0,0-0.1,0-0.1c0.3-0.1,0.4-0.6,0.9-0.5c0.1,0.1,0,0.3,0,0.4
		c0,0.2,0,0.5,0,0.7C40.6,54.7,40.5,54.7,40.3,54.6z"/>
	<path class="st22" d="M37.2,48c-1.1,1.1-2.3,2.3-3.4,3.4c-0.2,0.2-0.3,0.3-0.5,0.5c-0.6,0-1.1,0.1-1.7,0.1
		c-0.1-0.3,0.1-0.4,0.3-0.5c1.4-1.4,2.8-2.8,4.2-4.2c0.1-0.1,0.3-0.4,0.5-0.3c0.8-0.1,0.7,0.5,0.7,0.9C37.2,47.9,37.2,47.9,37.2,48z
		"/>
	<path class="st6" d="M41.6,41.4c0.1,0,0.1,0,0.2,0c-1.8,1.8-3.5,3.6-5.4,5.4c-0.1,0.1-0.2,0.1-0.3,0c-0.2-0.3,0-0.4,0.2-0.6
		c1.5-1.6,3.1-3.1,4.6-4.6C41.1,41.4,41.3,41.3,41.6,41.4z"/>
	<path class="st5" d="M36.1,46.8c0.1,0,0.2,0,0.3,0c0,0,0,0.1,0,0.1c-1.4,1.3-2.7,2.7-4.1,4c-0.3,0.3-0.7,0.6-0.9,1
		c-0.1,0-0.2,0.1-0.2,0.1c-0.1,0.1-0.3,0.1-0.4,0.1c-0.2-0.2,0-0.3,0.1-0.4c1.7-1.6,3.2-3.4,5-4.9C36,46.7,36.1,46.7,36.1,46.8z"/>
	<path class="st6" d="M34.1,37.1c0,0.1,0.1,0.2,0.1,0.2c0,0,0,0.1,0,0.1c-1.4,1.4-2.8,2.8-4.2,4.1c-0.2,0.2-0.3,0.4-0.6,0.4
		c0-0.1-0.1-0.1-0.1-0.2c1.5-1.6,3-3.1,4.5-4.6C34,37.2,34.1,37.2,34.1,37.1z"/>
	<path class="st5" d="M40.8,54.1c0-0.2,0-0.3,0-0.5c0-0.1,0-0.1,0-0.2c1-1.2,2.2-2.2,3.3-3.3c0,0,0.1,0,0.1,0
		c0.1,0.1,0.1,0.2,0.2,0.3c0,0.1,0,0.2,0.1,0.2c-0.2,0-0.4,0.2-0.5,0.4C42.8,52.1,41.8,53.1,40.8,54.1z"/>
	<path class="st6" d="M33.2,52c0,0.1,0,0.1,0,0.2c0,0.1-0.1,0.3-0.2,0.4c-1.6,1.6-3.1,3.1-4.7,4.7c0-0.1-0.1-0.2-0.1-0.3
		c1.2-1.4,2.6-2.7,3.9-4C32.5,52.6,32.7,52.2,33.2,52z"/>
	<path class="st6" d="M33.8,53.7c0,0.1,0.1,0.2,0.1,0.3c-1.5,1.6-3.1,3.2-4.7,4.7c-0.1-0.1-0.2-0.2-0.2-0.3c0.9-0.8,1.7-1.6,2.5-2.5
		C32.3,55.1,33,54.4,33.8,53.7z"/>
	<path class="st22" d="M40.8,49.5c0.4-0.3,0.8-0.7,1.2-1c0.4,0.1,0.7,0.3,1,0.6c0.1,0.1,0,0.2-0.1,0.3c-0.6,0.6-1.2,1.2-1.8,1.8
		c-0.1,0.1-0.3,0.3-0.5,0c-0.1-0.5-0.1-1,0.1-1.5C40.8,49.6,40.8,49.5,40.8,49.5z"/>
	<path class="st5" d="M40.8,51.2c0.8-0.7,1.5-1.4,2.2-2.2c0,0,0.1,0,0.1,0c0.1,0.1,0.2,0.1,0.2,0.2c0,0,0,0.1,0,0.1
		c-0.5,0.8-1.3,1.4-2,2.1c-0.2,0.2-0.3,0.4-0.6,0.3c-0.1-0.1-0.1-0.3-0.1-0.4C40.7,51.3,40.7,51.3,40.8,51.2z"/>
	<path class="st6" d="M30.3,60c-0.1,0-0.2-0.1-0.2-0.2c1.5-1.5,2.9-2.9,4.4-4.4c0.1-0.1,0.2-0.1,0.3-0.1c0.1,0,0.2,0.1,0.1,0.2
		C33.4,57,31.9,58.5,30.3,60z"/>
	<path class="st5" d="M34.8,55.4c0-0.1-0.1-0.2-0.1-0.2c0,0,0-0.1,0-0.1c0.8-0.9,1.6-1.7,2.4-2.5c0,0.2,0,0.3,0,0.5
		c0,0.1,0,0.1,0,0.2C36.5,54,35.8,54.8,34.8,55.4C34.9,55.4,34.9,55.4,34.8,55.4z"/>
	<path class="st22" d="M37.2,38.7c-0.4,0.3-0.6,0.8-1.2,0.9c-0.4-0.1-0.6-0.4-0.8-0.7c-0.1-0.2,0-0.3,0.1-0.4c0.5-0.5,1-1,1.5-1.5
		c0.1-0.1,0.3-0.3,0.5,0c0.1,0.5,0.1,1-0.1,1.5C37.2,38.6,37.2,38.6,37.2,38.7z"/>
	<path class="st6" d="M30.5,43.4c-0.1-0.1-0.2-0.2-0.2-0.3c1.6-1.5,3.1-3,4.6-4.6c0.2,0,0.3,0.1,0.2,0.4c-0.9,1-1.9,2-2.9,2.9
		C31.7,42.4,31.1,42.9,30.5,43.4z"/>
	<path class="st5" d="M35.1,38.9c0-0.2-0.1-0.3-0.2-0.4c0,0,0-0.1,0-0.1c0.5-0.2,0.8-0.7,1.2-1c0.4-0.3,0.8-0.7,1.1-1.1
		c0,0.2,0,0.3,0,0.5c0,0.1,0,0.1,0,0.1c-0.7,0.6-1.4,1.3-2,2C35.2,38.9,35.1,38.9,35.1,38.9z"/>
	<path class="st22" d="M40.8,51.8c0.9-0.8,1.7-1.6,2.6-2.5c0.3,0.2,0.5,0.5,0.7,0.8c0,0.1-0.1,0.2-0.1,0.3c-1,1-2.1,2-3.1,3.1
		c-0.3-0.5-0.2-1-0.1-1.6C40.7,51.9,40.7,51.9,40.8,51.8z"/>
	<path class="st6" d="M30.8,52c0.2,0,0.3,0,0.5,0c-1.1,1.3-2.4,2.4-3.6,3.6c-0.1-0.1-0.1-0.3-0.1-0.5c1.1-1,2.1-2.1,3.2-3.1
		C30.7,52,30.7,52,30.8,52z"/>
	<path class="st22" d="M34.9,55.4c0.7-0.8,1.4-1.5,2.2-2.2c0.3,0.5,0.1,1,0.2,1.5c0,0.1,0,0.1,0,0.2c-0.4,0.6-0.9,1-1.3,1.4
		c-0.1,0.1-0.3,0.2-0.4,0.1C35.3,56.1,35.1,55.8,34.9,55.4z"/>
	<path class="st6" d="M31.7,61c-0.1,0-0.3-0.1-0.4-0.2c1.3-1.4,2.7-2.7,4.1-4.1c0.1-0.1,0.2-0.1,0.3-0.1c0.1,0,0.2,0,0.2,0.2
		c-1.3,1.3-2.5,2.5-3.8,3.8C32,60.7,31.8,60.8,31.7,61z"/>
	<path class="st5" d="M35.9,56.7c-0.1-0.1-0.1-0.1-0.2-0.2c0-0.1-0.1-0.1-0.1-0.2c0.5-0.1,0.7-0.6,1.1-0.9c0.2-0.1,0.3-0.3,0.5-0.5
		c0.1,0.1,0.1,0.3,0.1,0.4c0,0.1,0,0.1,0,0.2C36.9,56,36.5,56.4,35.9,56.7L35.9,56.7L35.9,56.7z"/>
	<path class="st22" d="M40.8,40.2c1.6-1.6,3.2-3.1,4.7-4.8c0,0,0-0.1,0-0.1c0.1,0,0.1,0,0.2,0c0.5,0,0.9-0.1,1.4-0.1
		c0.2,0,0.4,0,0.1,0.3c-0.6,0.6-1.3,1.3-1.9,1.9c-1.3,1.3-2.6,2.6-3.9,3.9c-0.2,0.1-0.5,0.2-0.7-0.1c-0.3-0.3-0.2-0.6,0-1
		C40.8,40.3,40.8,40.2,40.8,40.2z"/>
	<path class="st6" d="M43.5,35c0-0.1,0-0.2,0-0.3c1.4-1.5,2.9-3,4.4-4.4c0.1,0.1,0.2,0.2,0.2,0.4c-1.4,1.3-2.7,2.7-4.1,4
		C43.9,34.8,43.8,35,43.5,35z"/>
	<path class="st6" d="M46.8,29c0.1,0,0.2,0.1,0.2,0.2c-1.2,1.2-2.4,2.4-3.6,3.7c-0.2,0.2-0.3,0.4-0.5,0.6c-0.2,0-0.3-0.1-0.2-0.4
		C44,31.7,45.4,30.3,46.8,29z"/>
	<path class="st5" d="M42.7,33.1c0,0.2,0.1,0.3,0.2,0.4c0,0,0,0.1,0,0.1c-0.6,0.3-1,0.9-1.4,1.3c-0.2,0.2-0.5,0.4-0.7,0.7
		c0-0.2,0-0.3,0-0.5c0,0,0-0.1,0-0.2c0.6-0.7,1.2-1.3,1.9-1.8C42.7,33.1,42.7,33.1,42.7,33.1z"/>
	<path class="st32" d="M36,56.7c0.3-0.5,0.7-0.8,1.2-1.2c0.3,0.5,0.3,1.1,0,1.6c0,0,0,0,0,0C36.7,57.1,36.3,57,36,56.7z"/>
	<path class="st22" d="M42.6,33.1c-0.6,0.7-1.2,1.3-1.8,1.9c-0.3-0.5-0.2-1.1,0-1.6c0,0,0-0.1,0-0.1c0.3-0.3,0.7-0.6,1-0.9
		C42.2,32.5,42.4,32.7,42.6,33.1z"/>
	<path class="st2" d="M46.7,59.1c0,0,0,0.1,0,0.1c-0.5,0.6-1.1,1.2-1.7,1.8c-1.4,1.4-2.8,2.8-4.2,4.2c-0.1,0.1-0.3,0.3-0.4,0.5
		c0,0-0.1,0-0.1,0s-0.1,0-0.1,0c-0.3-0.3-0.6-0.6-1-0.7c0,0,0-0.1,0-0.1c0.2,0,0.3-0.2,0.5-0.3c1.9-1.9,3.7-3.7,5.6-5.6
		c0.1-0.1,0.3-0.2,0.3-0.5c0.1,0,0.2,0.1,0.2,0.1C46.2,58.8,46.4,59,46.7,59.1z"/>
	<path class="st33" d="M49.4,33.7c-0.1,0.5-0.7,0.7-0.9,1.2C48.2,35,48,35,47.8,35c0.5-0.5,1.1-1.1,1.6-1.6
		C49.4,33.5,49.4,33.6,49.4,33.7z"/>
	<path class="st22" d="M30.8,52c0,0-0.1,0-0.1,0c-0.5,0-0.9,0.1-1.4,0.1c-0.2,0-0.4,0-0.1-0.3c0.7-0.7,1.3-1.3,2-2
		c1.1-1.1,2.3-2.2,3.4-3.4c0.5-0.1,1-0.1,1.4,0.3c-0.7,0.9-1.6,1.6-2.3,2.4C32.6,50.1,31.7,51.1,30.8,52z"/>
	<path class="st3" d="M35.9,46.8c-0.5-0.1-0.9-0.3-1.4-0.3c0,0,0-0.1,0-0.1c0.3,0,0.4-0.2,0.6-0.4c1.8-1.7,3.5-3.5,5.3-5.2
		c0.1-0.1,0.3-0.3,0.5-0.4c0,0.1,0,0.2,0,0.3c-0.1,0.6,0.2,0.7,0.7,0.7c0,0,0.1,0.1,0.1,0.1c-0.2,0-0.4,0.1-0.6,0.2
		c-1.6,1.6-3.1,3.1-4.7,4.7c-0.1,0.1-0.2,0.2-0.2,0.4C36.1,46.8,36,46.8,35.9,46.8z"/>
	<path class="st3" d="M37.2,54.8c0-0.5,0-1.1,0-1.6c0,0,0-0.1,0-0.1c1-1,2.1-2,3.1-3.1c0.2-0.1,0.3-0.3,0.5-0.4c0,0.5,0,1.1,0,1.6
		c0,0,0,0.1,0,0.1c-0.1,0.2-0.2,0.4-0.4,0.6c-0.9,0.9-1.7,1.7-2.6,2.6C37.6,54.6,37.5,54.9,37.2,54.8z"/>
	<path class="st3" d="M40.8,33.3c0,0.5,0,1.1,0,1.6c0,0,0,0.1,0,0.1c-1,1-2.1,2-3.1,3.1c-0.2,0.1-0.3,0.3-0.5,0.4c0-0.5,0-1.1,0-1.6
		c0,0,0-0.1,0-0.1c1-1,2.1-2,3.1-3.1C40.4,33.6,40.6,33.5,40.8,33.3z"/>
	<path class="st9" d="M37.2,57.2c0-0.5,0-1.1,0-1.6c0,0,0-0.1,0-0.1c0.1-0.2,0.2-0.4,0.4-0.6c0.9-0.9,1.7-1.7,2.6-2.6
		c0.2-0.2,0.3-0.4,0.6-0.3c0,0.5,0,1.1,0,1.6c0,0,0,0.1,0,0.1c-0.3,0.1-0.4,0.5-0.8,0.6c-0.5,0.1-0.6,0.6-0.9,0.9
		c-0.1,0.2-0.3,0.4-0.5,0.5c-0.3,0.3-0.5,0.6-0.8,0.9C37.7,56.8,37.4,57,37.2,57.2z"/>
	<path class="st34" d="M38.7,55.6c0.3-0.4,0.5-0.8,0.8-1.3c0.1-0.2,0.3-0.3,0.5-0.1c0,0,0,0.1,0,0.1C39.6,54.8,39.2,55.3,38.7,55.6z
		"/>
	<path class="st6" d="M40.8,51.9c-1,1-2.1,2-3.1,3.1c-0.2,0.1-0.3,0.3-0.5,0.4c0-0.2,0-0.3,0-0.5c0,0,0-0.1,0-0.1c1-1,2.1-2,3.1-3.1
		c0.2-0.1,0.3-0.3,0.5-0.4c0,0.2,0,0.3,0,0.5C40.8,51.8,40.8,51.9,40.8,51.9z"/>
</g>
<text transform="matrix(1 0 0 1 101.3022 66.6934)"><tspan x="0" y="0" class="st1 st35 st36">Youve made 78% profit </tspan><tspan x="0" y="22.3" class="st1 st35 st36">on your last trade!</tspan></text>
</svg>
