<?xml version="1.0" encoding="utf-8"?>
<!-- Generator: Adobe Illustrator 26.4.1, SVG Export Plug-In . SVG Version: 6.00 Build 0)  -->
<svg version="1.1" id="Layer_1" xmlns="http://www.w3.org/2000/svg" xmlns:xlink="http://www.w3.org/1999/xlink" x="0px" y="0px"
	 viewBox="0 0 300 100" style="enable-background:new 0 0 300 100;" xml:space="preserve">
<style type="text/css">
	.st0{fill:#FFFFFF;fill-opacity:0.8;}
	.st1{fill:#4FB96F;}
	.st2{fill:#F2D45B;}
	.st3{fill:#F6FBF7;}
	.st4{fill:#ADDEBB;}
	.st5{fill:#EFC319;}
	.st6{fill:#F4DB74;}
	.st7{fill:#F5DC79;}
	.st8{fill:#F4D768;}
	.st9{fill:#F7E497;}
	.st10{fill:#F7E49A;}
	.st11{fill:#B08F46;}
	.st12{fill:#F5DD7E;}
	.st13{font-family:'Lato-Regular';}
	.st14{font-size:26.0532px;}
	.st15{font-family:'Lato-Medium';}
	.st16{font-size:19.306px;}
</style>
<g>
	<path class="st0" d="M20,0h260c11,0,20,9,20,20v60c0,11-9,20-20,20H20C9,100,0,91,0,80V20C0,9,9,0,20,0z"/>
</g>
<g>
	<path class="st1" d="M73.7,31.1c-0.2,0.3-0.1,0.6-0.1,0.8c-0.1,0.9-0.1,1.7-0.2,2.6c0,0.5-0.2,0.9-0.7,1.1c-0.5,0.2-0.9,0-1.2-0.3
		c-0.2-0.2-0.5-0.4-0.7-0.7c-0.2-0.2-0.3-0.2-0.4,0c-1.4,1.5-2.9,2.9-4.4,4.4c-0.7,0.7-1.4,1.4-2.1,2.1c-1.4,1.4-3,1.4-4.4,0
		c-1-1-1.9-1.9-2.9-2.9c-0.5-0.5-0.8-0.5-1.3,0C52,41.6,48.6,45,45.3,48.4c-1.4,1.4-3,1.4-4.4,0c-0.5-0.5-0.9-1-1.4-1.4
		c-0.5-0.5-0.8-0.5-1.3,0c-1.1,1.1-2.2,2.2-3.3,3.3c-0.5,0.4-1,0.6-1.6,0.3c-0.5-0.2-0.9-0.8-0.8-1.4c0-0.4,0.2-0.7,0.4-0.9
		c1.3-1.3,2.6-2.7,4-4c1.2-1.2,2.9-1.2,4.1,0c0.6,0.6,1.3,1.2,1.9,1.9c0.3,0.3,0.4,0.3,0.7,0c3.5-3.5,7-7,10.4-10.5
		c0.5-0.5,1-0.9,1.7-1c1-0.2,1.8,0.1,2.5,0.8c1,1,2,2,3,3c0.5,0.5,0.8,0.5,1.4,0c2-2,4-4,6-5.9c0.2-0.2,0.2-0.3,0-0.5
		c-0.2-0.2-0.4-0.4-0.7-0.7c-0.3-0.3-0.5-0.7-0.3-1.2c0.2-0.5,0.6-0.6,1-0.7c1.1-0.1,2.2-0.2,3.3-0.3c0.1,0,0.2,0,0.3-0.1
		c0.1,0,0.2,0,0.2,0c0.1,0.1,0.1,0.1,0.2,0c0.3,0,0.5,0,0.8,0c0.3,0.1,0.5,0.3,0.6,0.6C73.7,30.3,73.7,30.7,73.7,31.1z"/>
	<path class="st2" d="M66.2,56.4c-0.3-0.1-0.6-0.2-0.9-0.3c-2.8-0.9-4.6-3.6-4.4-6.5c0.2-2.9,2.4-5.4,5.3-5.9
		c3.5-0.6,6.9,1.7,7.5,5.3c0,0.1,0,0.2,0.1,0.2c0,0.6,0,1.1,0,1.7c-0.2,0.3-0.2,0.7-0.3,1.1c-0.8,2.3-2.4,3.7-4.7,4.3
		c-0.1,0-0.2,0-0.4,0c-0.5,0.3-1,0.1-1.5,0.2C66.6,56.5,66.4,56.4,66.2,56.4z"/>
	<path class="st3" d="M73.7,29.8c-0.2-0.2-0.3-0.4-0.6-0.6C73.7,29.3,73.7,29.3,73.7,29.8z"/>
	<path class="st4" d="M72.4,29.3c-0.1,0.1-0.1,0.1-0.2,0C72.2,29.3,72.3,29.3,72.4,29.3z"/>
	<path class="st2" d="M52.1,62.1c-0.4-0.2-0.9-0.3-1.4-0.4c-2.3-0.9-4.3-3.3-4-6.7c0.2-2.5,2.3-4.9,4.9-5.5c3.7-0.9,7.4,1.6,7.9,5.4
		c0.4,3.4-1.8,6.5-5.2,7.2c-0.1,0-0.2,0-0.3,0c0,0.1-0.1,0.1-0.2,0.1C53.2,62.2,52.6,62.3,52.1,62.1z"/>
	<path class="st2" d="M37.6,67.7c-2.4-0.3-4.5-2.4-5.1-4.8c-1-4.3,2.5-8.3,6.9-7.9c3,0.3,5.3,2.6,5.7,5.6c0.4,3.3-1.8,6.4-5,7.1
		c-0.1,0-0.1,0-0.2,0c-0.2,0.2-0.5,0.2-0.8,0.2c-0.3,0-0.6,0-0.9,0C38,67.9,37.8,67.9,37.6,67.7z"/>
	<path class="st2" d="M62.6,62.2c0-0.1-0.1-0.1-0.2-0.2c-0.6-0.3-0.9-0.7-0.9-1.4c0-0.6,0.4-1,0.9-1.3c0.1,0,0.1-0.1,0.2-0.1
		c0.1-0.2,0.3-0.1,0.5-0.1c2.7,0,5.4,0,8.1,0c0.2,0,0.4,0,0.5,0.1c0.1,0.1,0.2,0.1,0.3,0.2c0.5,0.3,0.8,0.7,0.9,1.3
		c0,0.6-0.3,1.1-0.9,1.3c-0.1,0-0.2,0-0.2,0.2c-0.1,0.1-0.2,0.1-0.3,0.1c-2.9,0-5.8,0-8.6,0C62.9,62.2,62.7,62.3,62.6,62.2z"/>
	<path class="st5" d="M52.1,62.1c0.4,0,0.8,0,1.2,0c0.2,0,0.5,0,0.7-0.1c0.1,0.2,0.2,0.1,0.4,0.1c1,0,1.9,0,2.9,0
		c0.9,0,1.5,0.5,1.6,1.3c0.1,0.7-0.3,1.3-1.2,1.6C57.4,65,57.2,65,57.1,65c-2.7,0-5.4,0-8.1,0c-0.2,0-0.4,0-0.5-0.1
		c-0.8-0.2-1.3-0.8-1.2-1.6c0.1-0.8,0.7-1.3,1.6-1.3C50,62.1,51,62.1,52.1,62.1z"/>
	<path class="st5" d="M57.6,67.8c0.9,0.3,1.3,0.9,1.1,1.6c-0.1,0.7-0.7,1.2-1.5,1.2c-2.4,0-4.8,0-7.3,0c-0.4,0-0.8,0-1.1,0
		c-0.8,0-1.4-0.5-1.5-1.2c-0.1-0.7,0.3-1.3,1-1.6c0.1,0,0.1,0,0.2,0c0.2-0.1,0.3-0.1,0.5-0.1c2.7,0,5.4,0,8.1,0
		C57.2,67.7,57.4,67.7,57.6,67.8z"/>
	<path class="st5" d="M71.9,67.8c0.8,0.3,1.2,0.8,1.1,1.5c0,0.6-0.5,1.1-1.1,1.3c-0.2,0-0.3,0-0.5,0c-2.7,0-5.4,0-8.2,0
		c-0.9,0-1.4-0.4-1.6-1.1c-0.2-0.7,0.1-1.3,0.9-1.7c0.1,0,0.1-0.1,0.1-0.1c0,0,0.1,0,0.2,0c2.8,0,5.6,0,8.4,0
		C71.5,67.7,71.7,67.7,71.9,67.8z"/>
	<path class="st5" d="M43.2,67.8c0.8,0.1,1.3,0.7,1.3,1.5c0,0.7-0.7,1.3-1.5,1.3c-2.8,0-5.6,0-8.5,0c-0.8,0-1.4-0.6-1.5-1.3
		c0-0.8,0.5-1.4,1.3-1.5c0.7-0.1,1.3,0,2,0c0.6,0,1.3,0,1.9,0c0.3,0,0.7,0,1,0C40.5,67.8,41.9,67.8,43.2,67.8z"/>
	<path class="st5" d="M62.6,62.2c0.8-0.1,1.7-0.1,2.5-0.1c1.7,0,3.4,0,5.2,0c0.6,0,1.1,0,1.7,0.1c0.7,0.2,1,0.7,1,1.3
		c0,0.7-0.4,1.2-1.1,1.4c-0.1,0.1-0.3,0.1-0.5,0.1c-2.7,0-5.4,0-8.1,0c-0.2,0-0.4,0-0.5-0.1c-0.8-0.2-1.2-0.7-1.2-1.4
		C61.6,62.9,62,62.4,62.6,62.2z"/>
	<path class="st2" d="M62.7,67.8L62.7,67.8C62.7,67.8,62.7,67.7,62.7,67.8c-0.8-0.2-1.2-0.8-1.1-1.5c0-0.7,0.5-1.2,1.2-1.3
		c0.1,0,0.2,0,0.3,0c2.8,0,5.7,0,8.5,0c0.1,0,0.2,0,0.3,0c0.7,0.1,1.1,0.7,1.1,1.4c0,0.7-0.4,1.2-1.1,1.4c-0.1,0.1-0.2,0-0.3,0
		c-2.8,0-5.7,0-8.5,0C62.9,67.8,62.8,67.8,62.7,67.8z"/>
	<path class="st5" d="M71.9,59.2c-3.1,0-6.1,0-9.2,0c-0.7-0.2-1.1-0.7-1.1-1.4c0-0.7,0.5-1.2,1.2-1.4c0.1,0,0.2,0,0.3,0
		c2.8,0,5.6,0,8.4,0c0.1,0,0.2,0,0.3,0c0.7,0.1,1.2,0.6,1.2,1.3C73,58.5,72.6,59,71.9,59.2z"/>
	<path class="st2" d="M57.6,65c0.7,0.1,1.2,0.7,1.2,1.4c0,0.7-0.5,1.2-1.2,1.4c-0.1,0-0.2,0-0.3,0c-2.8,0-5.7,0-8.5,0
		c-0.1,0-0.2,0-0.3,0c-0.7-0.1-1.2-0.7-1.2-1.4c0-0.7,0.5-1.2,1.2-1.4c0.1-0.1,0.2,0,0.3,0c2.8,0,5.7,0,8.5,0
		C57.4,65,57.5,64.9,57.6,65z"/>
	<path class="st6" d="M71.8,56.4c-1.8,0-3.7,0-5.5,0c-1.2,0-2.3,0-3.5,0c0.2-0.1,0.4-0.1,0.5-0.1c1,0,1.9,0,2.9,0
		c0.2-0.2,0.4,0,0.7,0c0.5,0,1,0,1.5-0.1c0.1,0.1,0.3,0.1,0.4,0.1c0.9,0,1.7,0,2.6,0C71.5,56.4,71.7,56.3,71.8,56.4z"/>
	<path class="st7" d="M62.7,67.8c3.1,0,6.1,0,9.2,0c0,0,0,0,0,0.1c-3,0-5.9,0-8.9,0C62.9,67.8,62.8,67.9,62.7,67.8z"/>
	<path class="st8" d="M57.6,65c-3,0-6.1,0-9.1,0c0,0,0,0,0-0.1C51.5,64.9,54.5,64.9,57.6,65C57.6,65,57.6,65,57.6,65z"/>
	<path class="st8" d="M71.9,65c-3,0-6.1,0-9.1,0c0,0,0,0,0-0.1c1.9,0,3.7,0,5.6,0C69.5,64.9,70.7,64.9,71.9,65
		C71.9,64.9,71.9,65,71.9,65z"/>
	<path class="st7" d="M48.5,67.8c3,0,6.1,0,9.1,0c0,0,0,0,0,0.1C54.5,67.8,51.5,67.8,48.5,67.8C48.5,67.8,48.5,67.8,48.5,67.8z"/>
	<path class="st9" d="M43.2,67.8c-1.3,0-2.6,0-4,0c0,0,0,0,0,0c0,0,0,0,0,0c0.2,0,0.5,0,0.7-0.1c0.1,0.1,0.3,0.1,0.4,0.1
		c0.8,0,1.6,0,2.4,0C42.9,67.8,43,67.7,43.2,67.8z"/>
	<path class="st10" d="M38.2,67.8c-1.3,0-2.6,0-3.9,0c0.2-0.1,0.4-0.1,0.7-0.1c0.7,0,1.4,0,2.2,0c0.1,0,0.3,0,0.4-0.1
		C37.8,67.7,38,67.7,38.2,67.8C38.3,67.8,38.3,67.8,38.2,67.8C38.3,67.8,38.2,67.8,38.2,67.8z"/>
	<path class="st11" d="M69.4,51.6c0,0.6-0.4,1.3-1.1,1.7c-0.2,0.1-0.3,0.2-0.3,0.4c0,0.4-0.3,0.5-0.7,0.5c-0.3,0-0.6-0.2-0.7-0.5
		c0-0.3-0.2-0.4-0.4-0.5c-0.4-0.2-0.8-0.5-0.8-1c0-0.3,0.1-0.6,0.4-0.7c0.3-0.1,0.6-0.1,0.8,0.2c0.2,0.2,0.4,0.4,0.7,0.4
		c0.4,0,0.7-0.3,0.7-0.6c0-0.4-0.2-0.7-0.6-0.7c-0.3,0-0.6-0.1-0.9-0.2c-0.8-0.4-1.2-1-1.3-1.8c-0.1-0.9,0.3-1.6,1.1-2
		c0.2-0.1,0.3-0.2,0.3-0.4c0.1-0.3,0.3-0.5,0.7-0.5c0.3,0,0.6,0.2,0.7,0.5c0,0.2,0.1,0.3,0.3,0.4c0.3,0.2,0.6,0.4,0.8,0.8
		c0.2,0.3,0.1,0.8-0.2,1c-0.3,0.2-0.7,0.2-0.9-0.1c-0.2-0.2-0.3-0.4-0.6-0.4c-0.5,0-0.7,0.2-0.8,0.6c0,0.5,0.2,0.7,0.7,0.7
		C68.6,49.3,69.4,50.2,69.4,51.6z"/>
	<path class="st11" d="M51.9,57.2c0.3,0,0.5,0.2,0.7,0.4c0.2,0.2,0.5,0.3,0.8,0.2c0.3-0.1,0.4-0.4,0.5-0.7c0-0.4-0.3-0.7-0.9-0.7
		c-0.9-0.1-1.5-0.6-1.8-1.4c-0.4-1,0-2,0.9-2.5c0.2-0.1,0.3-0.2,0.4-0.5c0.1-0.3,0.3-0.6,0.7-0.5c0.4,0,0.6,0.3,0.7,0.6
		c0,0.2,0.1,0.3,0.3,0.3c0.3,0.2,0.6,0.4,0.8,0.7c0.3,0.4,0.2,0.8-0.1,1.1c-0.3,0.2-0.8,0.1-1.1-0.3c-0.3-0.4-0.7-0.4-1-0.2
		c-0.3,0.2-0.4,0.6-0.2,0.9c0.2,0.3,0.4,0.4,0.7,0.4c0.9,0.1,1.6,0.5,1.9,1.4c0.3,0.8,0.1,1.7-0.6,2.3c-0.1,0.1-0.2,0.2-0.3,0.2
		c-0.2,0.1-0.4,0.2-0.4,0.5C53.6,59.8,53.4,60,53,60c-0.3,0-0.6-0.2-0.7-0.5c-0.1-0.3-0.2-0.4-0.4-0.5c-0.3-0.2-0.6-0.4-0.7-0.7
		C50.9,57.6,51.2,57.1,51.9,57.2z"/>
	<path class="st11" d="M37.5,62.8c0.3,0,0.5,0.3,0.7,0.5c0.2,0.2,0.5,0.3,0.8,0.2c0.3-0.2,0.4-0.4,0.4-0.7c0-0.3-0.4-0.6-0.7-0.6
		c-0.9,0-1.5-0.4-1.9-1.2c-0.4-0.8-0.3-1.5,0.2-2.2c0.2-0.3,0.5-0.5,0.8-0.6c0.2-0.1,0.2-0.2,0.3-0.4c0-0.4,0.3-0.5,0.7-0.6
		c0.3,0,0.7,0.2,0.7,0.6c0,0.2,0.2,0.3,0.3,0.4c0.4,0.2,0.7,0.5,0.8,0.8c0.2,0.3,0.1,0.7-0.2,0.9c-0.3,0.2-0.7,0.2-1-0.1
		c-0.1-0.1-0.1-0.1-0.1-0.2c-0.2-0.3-0.5-0.3-0.9-0.2c-0.3,0.1-0.4,0.4-0.4,0.8c0.1,0.3,0.3,0.5,0.6,0.5c0.9,0.1,1.6,0.4,2,1.3
		c0.5,1,0.1,2.2-0.9,2.7c-0.2,0.1-0.3,0.2-0.4,0.5c-0.1,0.3-0.3,0.5-0.7,0.5c-0.3,0-0.6-0.2-0.6-0.5c0-0.3-0.2-0.4-0.4-0.5
		c-0.4-0.2-0.6-0.5-0.8-0.8C36.6,63.3,37,62.8,37.5,62.8z"/>
	<path class="st12" d="M38.2,67.8C38.2,67.8,38.2,67.8,38.2,67.8c0.3-0.1,0.7-0.1,1-0.1c0,0,0,0,0,0.1
		C38.9,67.8,38.6,67.8,38.2,67.8z"/>
</g>
<text transform="matrix(1 0 0 1 110.2202 48.4859)" class="st13 st14">200k</text>
<text transform="matrix(1 0 0 1 111.3115 72.9922)" class="st15 st16">Cumulative Profits</text>
</svg>
