<?xml version="1.0" encoding="UTF-8"?>
<svg id="Layer_2" data-name="Layer 2" xmlns="http://www.w3.org/2000/svg" viewBox="0 0 60 60">
  <defs>
    <style>
      .cls-1 {
        fill: #ffcb52;
      }

      .cls-2 {
        fill: #97d2fb;
      }

      .cls-3 {
        fill: #d98285;
      }

      .cls-4 {
        fill: #3d5a80;
      }

      .cls-5 {
        fill: #2a9d8f;
      }

      .cls-6 {
        fill: #4f5d75;
      }
    </style>
  </defs>
  <g id="Layer_1-2" data-name="Layer 1">
    <g>
      <circle class="cls-3" cx="10" cy="10" r="10"/>
      <circle class="cls-1" cx="50" cy="10" r="10"/>
      <circle class="cls-3" cx="50" cy="50" r="10"/>
      <circle class="cls-1" cx="10" cy="50" r="10"/>
      <path class="cls-6" d="M11,9v-3c1.08,0,2,.69,2,1.5h2c-.15-2.07-1.93-3.63-4-3.5v-1h-2v1c-2.07-.13-3.85,1.43-4,3.5,.15,2.07,1.93,3.63,4,3.5v3c-1.08,0-2-.69-2-1.5h-2c.15,2.07,1.93,3.63,4,3.5v1h2v-1c2.07,.13,3.85-1.43,4-3.5-.15-2.07-1.93-3.63-4-3.5Zm-4-1.5c0-.81,.92-1.5,2-1.5v3c-1.08,0-2-.69-2-1.5Zm4,6.5v-3c1.08,0,2,.69,2,1.5s-.92,1.5-2,1.5Zm40,0h-1c-.71,0-1.36-.38-1.72-1h1.72v-2h-2v-2h2v-2h-1.72c.36-.62,1.01-1,1.72-1h1c1.1,0,2,.9,2,2h2c0-2.21-1.79-4-4-4h-1c-1.82,0-3.41,1.24-3.86,3h-2.14v2h2v2h-2v2h2.14c.45,1.76,2.04,2.99,3.86,3h1c2.21,0,4-1.79,4-4h-2c0,1.1-.9,2-2,2Z"/>
      <polygon class="cls-6" points="54.78 45.63 53.22 44.38 50 48.4 46.78 44.38 45.22 45.63 48.72 50 46 50 46 52 49 52 49 53 46 53 46 55 49 55 49 57 51 57 51 55 54 55 54 53 51 53 51 52 54 52 54 50 51.28 50 54.78 45.63"/>
      <path class="cls-6" d="M13.3,53l-.62,.6c-.45,.43-1.14,.48-1.65,.12-.64-.47-1.44-.69-2.23-.62,.34-1,.46-2.05,.35-3.1h2.85v-2h-3.27l-.27-1c-.12-.46-.02-.95,.28-1.32,.32-.42,.81-.68,1.34-.68h.59c.89-.02,1.64,.68,1.66,1.58,0,0,0,0,0,.01h2c-.02-2-1.66-3.61-3.66-3.59h-.59c-1.14,0-2.22,.52-2.92,1.42-.66,.85-.9,1.96-.63,3l.13,.53h-1.66v2h2.12c.18,1.23-.08,2.48-.72,3.54l-.58,.93c-.32,.45-.22,1.07,.23,1.39,.18,.13,.4,.19,.62,.19,.15,0,.3-.03,.43-.1l1.43-.69c.43-.21,.93-.16,1.32,.11,1.3,.92,3.07,.79,4.22-.32l.63-.61-1.4-1.39Z"/>
      <path class="cls-4" d="M1.47,39.31c-1.96-6.05-1.96-12.57,0-18.62l1.91,.62c-1.84,5.65-1.84,11.73,0,17.38l-1.91,.62Zm28.53,20.69c-3.16,0-6.3-.5-9.31-1.47l.62-1.9c5.65,1.82,11.73,1.82,17.38,0l.62,1.9c-3.01,.97-6.15,1.47-9.31,1.47Zm28.53-20.69l-1.91-.62c1.84-5.65,1.84-11.73,0-17.38l1.91-.62c1.96,6.05,1.96,12.57,0,18.62ZM38.69,3.37c-5.65-1.82-11.73-1.82-17.38,0l-.62-1.9c6.05-1.95,12.57-1.95,18.62,0l-.62,1.9Z"/>
      <circle class="cls-2" cx="30" cy="30" r="13"/>
      <path class="cls-5" d="M30.3,37.48c-.98,.33-2.04-.2-2.37-1.18-.13-.38-.13-.8,0-1.18l.53-1.6c.27-.8-.03-1.68-.73-2.15l-.73-.49c-.76-.51-1.04-1.49-.67-2.32l2.88-6.56c.42-.95,0-2.06-.96-2.48-.01,0-.03-.01-.04-.02l-3.49-1.4c-3.98,1.78-6.81,5.44-7.52,9.74l3,.6c1.18,.24,1.94,1.38,1.7,2.55,0,.03-.01,.06-.02,.1l-.3,1.2c-.15,.59-.04,1.22,.3,1.73l1.12,1.68c.34,.51,.45,1.14,.3,1.73l-.79,3.16c2.19,1.56,4.8,2.41,7.49,2.41,.74,0,1.47-.07,2.2-.2l.54-3.23c.17-1.02-.53-1.99-1.55-2.16-.3-.05-.6-.03-.89,.07Zm11.92-11.87c-1.18-3.3-3.65-5.97-6.83-7.43l-2.26,6.82c-.07,.55,.32,1.05,.87,1.11,.21,.03,.42-.01,.6-.11,.47-.28,1.09-.13,1.37,.35,.1,.17,.15,.36,.14,.56l-.27,1.64c-.09,.51,.24,1,.76,1.09,.28,.05,.57-.03,.78-.21l4.54-3.77,.3-.05Z"/>
    </g>
  </g>
</svg>